<?xml version="1.0" encoding="utf-8" ?>
<svg xmlns="http://www.w3.org/2000/svg" xmlns:cc="http://creativecommons.org/ns" xmlns:dc="http://purl.org/dc/elements/1.1/" xmlns:ev="http://www.w3.org/2001/xml-events" xmlns:inkscape="http://www.inkscape.org/namespaces/inkscape" xmlns:rdf="http://www.w3.org/1999/02/22-rdf-syntax-ns" xmlns:sodipodi="http://sodipodi.sourceforge.net/DTD/sodipodi-0.dtd" xmlns:xlink="http://www.w3.org/1999/xlink" baseProfile="tiny" height="21.0cm" version="1.2" viewBox="0 0 559.3700787401575 793.7007874015749" width="14.8cm">
  <metadata>
    <rdf:RDF>
      <cc:Work>
        <dc:format>image/svg+xml</dc:format>
        <dc:source>Vsketch with params {'__seed__': 0, 'line_count': 600, 'sub_line_count': 50, 'export_page_size': 'a5', 'export_margin': 1.5}</dc:source>
        <dc:date>2023-02-25T13:43:35.802292</dc:date>
      </cc:Work>
    </rdf:RDF>
  </metadata>
  <defs/>
  <g fill="none" id="layer1" inkscape:groupmode="layer" inkscape:label="1" stroke="#000000" stroke-opacity="0.267" style="display:inline">
    <line x1="501.7592" x2="368.2393" y1="279.2261" y2="279.2261"/>
    <line x1="368.2393" x2="471.9454" y1="279.2261" y2="167.9595"/>
    <line x1="473.1" x2="367.5374" y1="169.9837" y2="290.3824"/>
    <line x1="367.5374" x2="87.6824" y1="290.3824" y2="165.9475"/>
    <line x1="88.8792" x2="365.4428" y1="163.9479" y2="301.3628"/>
    <line x1="365.4428" x2="84.2188" y1="301.3628" y2="386.4322"/>
    <line x1="83.1068" x2="361.9885" y1="384.3843" y2="311.994"/>
    <line x1="361.9885" x2="286.216" y1="311.994" y2="56.8027"/>
    <line x1="283.8864" x2="365.4428" y1="56.7417" y2="301.3628"/>
    <line x1="365.4428" x2="163.9479" y1="301.3628" y2="469.573"/>
    <line x1="165.9475" x2="367.5374" y1="470.7697" y2="290.3824"/>
    <line x1="367.5374" x2="281.5564" y1="290.3824" y2="56.7051"/>
    <line x1="279.2261" x2="368.2393" y1="56.6929" y2="279.2261"/>
    <line x1="368.2393" x2="390.4926" y1="279.2261" y2="86.5067"/>
    <line x1="388.4684" x2="367.5374" y1="85.3521" y2="268.0697"/>
    <line x1="367.5374" x2="165.9475" y1="268.0697" y2="87.6824"/>
    <line x1="163.9479" x2="365.4428" y1="88.8792" y2="257.0894"/>
    <line x1="365.4428" x2="394.5042" y1="257.0894" y2="469.573"/>
    <line x1="396.4912" x2="361.9885" y1="468.3554" y2="246.4581"/>
    <line x1="361.9885" x2="174.0679" y1="246.4581" y2="475.3453"/>
    <line x1="176.1273" x2="357.229" y1="476.4357" y2="236.3436"/>
    <line x1="357.229" x2="398.4653" y1="236.3436" y2="467.117"/>
    <line x1="400.4263" x2="351.2393" y1="465.8581" y2="226.9054"/>
    <line x1="351.2393" x2="80.9476" y1="226.9054" y2="178.1981"/>
    <line x1="82.0164" x2="357.229" y1="176.1273" y2="236.3436"/>
    <line x1="357.229" x2="288.5448" y1="236.3436" y2="501.564"/>
    <line x1="290.8726" x2="351.2393" y1="501.4542" y2="226.9054"/>
    <line x1="351.2393" x2="158.0258" y1="226.9054" y2="92.5941"/>
    <line x1="159.9868" x2="357.229" y1="91.3351" y2="236.3436"/>
    <line x1="357.229" x2="382.3248" y1="236.3436" y2="82.0164"/>
    <line x1="380.254" x2="351.2393" y1="80.9476" y2="226.9054"/>
    <line x1="351.2393" x2="56.9979" y1="226.9054" y2="290.8726"/>
    <line x1="57.132" x2="344.1139" y1="293.199" y2="218.2923"/>
    <line x1="344.1139" x2="402.374" y1="218.2923" y2="464.5787"/>
    <line x1="404.3083" x2="335.9653" y1="463.2789" y2="210.6402"/>
    <line x1="335.9653" x2="463.2789" y1="210.6402" y2="154.1439"/>
    <line x1="464.5787" x2="344.1139" y1="156.0781" y2="218.2923"/>
    <line x1="344.1139" x2="293.199" y1="218.2923" y2="501.3201"/>
    <line x1="295.524" x2="335.9653" y1="501.1616" y2="210.6402"/>
    <line x1="335.9653" x2="376.0794" y1="210.6402" y2="78.8753"/>
    <line x1="378.1721" x2="344.1139" y1="79.9005" y2="218.2923"/>
    <line x1="344.1139" x2="156.0781" y1="218.2923" y2="93.8735"/>
    <line x1="154.1439" x2="335.9653" y1="95.1732" y2="210.6402"/>
    <line x1="335.9653" x2="479.5768" y1="210.6402" y2="376.0794"/>
    <line x1="478.5516" x2="344.1139" y1="378.1721" y2="218.2923"/>
    <line x1="344.1139" x2="93.8735" y1="218.2923" y2="402.374"/>
    <line x1="92.5941" x2="351.2393" y1="400.4263" y2="226.9054"/>
    <line x1="351.2393" x2="267.5796" y1="226.9054" y2="56.9979"/>
    <line x1="265.2531" x2="344.1139" y1="57.132" y2="218.2923"/>
    <line x1="344.1139" x2="501.3201" y1="218.2923" y2="265.2531"/>
    <line x1="501.4542" x2="351.2393" y1="267.5796" y2="226.9054"/>
    <line x1="351.2393" x2="477.5046" y1="226.9054" y2="380.254"/>
    <line x1="476.4357" x2="357.229" y1="382.3248" y2="236.3436"/>
    <line x1="357.229" x2="269.9073" y1="236.3436" y2="56.8881"/>
    <line x1="272.2361" x2="361.9885" y1="56.8027" y2="246.4581"/>
    <line x1="361.9885" x2="384.3843" y1="246.4581" y2="83.1068"/>
    <line x1="386.4322" x2="365.4428" y1="84.2188" y2="257.0894"/>
    <line x1="365.4428" x2="501.7104" y1="257.0894" y2="274.5657"/>
    <line x1="501.747" x2="367.5374" y1="276.8957" y2="268.0697"/>
    <line x1="367.5374" x2="473.1" y1="268.0697" y2="388.4684"/>
    <line x1="471.9454" x2="368.2393" y1="390.4926" y2="279.2261"/>
    <line x1="368.2393" x2="167.9595" y1="279.2261" y2="471.9454"/>
    <line x1="169.9837" x2="367.5374" y1="473.1" y2="268.0697"/>
    <line x1="367.5374" x2="85.3521" y1="268.0697" y2="169.9837"/>
    <line x1="86.5067" x2="368.2393" y1="167.9595" y2="279.2261"/>
    <line x1="368.2393" x2="56.6929" y1="279.2261" y2="279.2261"/>
    <line x1="56.7051" x2="367.5374" y1="276.8957" y2="290.3824"/>
    <line x1="367.5374" x2="169.9837" y1="290.3824" y2="85.3521"/>
    <line x1="167.9595" x2="368.2393" y1="86.5067" y2="279.2261"/>
    <line x1="368.2393" x2="390.4926" y1="279.2261" y2="471.9454"/>
    <line x1="392.5047" x2="367.5374" y1="470.7697" y2="268.0697"/>
    <line x1="367.5374" x2="87.6824" y1="268.0697" y2="392.5047"/>
    <line x1="88.8792" x2="365.4428" y1="394.5042" y2="257.0894"/>
    <line x1="365.4428" x2="172.0199" y1="257.0894" y2="474.2334"/>
    <line x1="178.1981" x2="351.2393" y1="477.5046" y2="226.9054"/>
    <line x1="351.2393" x2="465.8581" y1="226.9054" y2="158.0258"/>
    <line x1="467.117" x2="357.229" y1="159.9868" y2="236.3436"/>
    <line x1="357.229" x2="501.564" y1="236.3436" y2="269.9073"/>
    <line x1="501.6494" x2="361.9885" y1="272.2361" y2="246.4581"/>
    <line x1="361.9885" x2="90.0968" y1="246.4581" y2="396.4912"/>
    <line x1="91.3351" x2="357.229" y1="398.4653" y2="236.3436"/>
    <line x1="357.229" x2="56.8881" y1="236.3436" y2="288.5448"/>
    <line x1="56.8027" x2="361.9885" y1="286.216" y2="246.4581"/>
    <line x1="361.9885" x2="475.3453" y1="246.4581" y2="384.3843"/>
    <line x1="474.2334" x2="365.4428" y1="386.4322" y2="257.0894"/>
    <line x1="365.4428" x2="84.2188" y1="257.0894" y2="172.0199"/>
    <line x1="83.1068" x2="361.9885" y1="174.0679" y2="246.4581"/>
    <line x1="361.9885" x2="286.216" y1="246.4581" y2="501.6494"/>
    <line x1="283.8864" x2="365.4428" y1="501.7104" y2="257.0894"/>
    <line x1="365.4428" x2="274.5657" y1="257.0894" y2="56.7417"/>
    <line x1="276.8957" x2="367.5374" y1="56.7051" y2="268.0697"/>
    <line x1="367.5374" x2="281.5564" y1="268.0697" y2="501.747"/>
    <line x1="279.2261" x2="368.2393" y1="501.7592" y2="279.2261"/>
    <line x1="368.2393" x2="86.5067" y1="279.2261" y2="390.4926"/>
    <line x1="85.3521" x2="367.5374" y1="388.4684" y2="290.3824"/>
    <line x1="367.5374" x2="276.8957" y1="290.3824" y2="501.747"/>
    <line x1="274.5657" x2="365.4428" y1="501.7104" y2="301.3628"/>
    <line x1="365.4428" x2="172.0199" y1="301.3628" y2="84.2188"/>
    <line x1="174.0679" x2="361.9885" y1="83.1068" y2="311.994"/>
    <line x1="361.9885" x2="384.3843" y1="311.994" y2="475.3453"/>
    <line x1="386.4322" x2="365.4428" y1="474.2334" y2="301.3628"/>
    <line x1="365.4428" x2="56.7417" y1="301.3628" y2="274.5657"/>
    <line x1="56.8027" x2="361.9885" y1="272.2361" y2="311.994"/>
    <line x1="361.9885" x2="272.2361" y1="311.994" y2="501.6494"/>
    <line x1="269.9073" x2="357.229" y1="501.564" y2="322.1085"/>
    <line x1="357.229" x2="82.0164" y1="322.1085" y2="382.3248"/>
    <line x1="80.9476" x2="351.2393" y1="380.254" y2="331.5467"/>
    <line x1="351.2393" x2="380.254" y1="331.5467" y2="477.5046"/>
    <line x1="382.3248" x2="357.229" y1="476.4357" y2="322.1085"/>
    <line x1="357.229" x2="91.3351" y1="322.1085" y2="159.9868"/>
    <line x1="92.5941" x2="351.2393" y1="158.0258" y2="331.5467"/>
    <line x1="351.2393" x2="56.9979" y1="331.5467" y2="267.5796"/>
    <line x1="57.132" x2="344.1139" y1="265.2531" y2="340.1598"/>
    <line x1="344.1139" x2="501.3201" y1="340.1598" y2="293.199"/>
    <line x1="501.4542" x2="351.2393" y1="290.8726" y2="331.5467"/>
    <line x1="351.2393" x2="290.8726" y1="331.5467" y2="56.9979"/>
    <line x1="293.199" x2="344.1139" y1="57.132" y2="340.1598"/>
    <line x1="344.1139" x2="464.5787" y1="340.1598" y2="402.374"/>
    <line x1="463.2789" x2="335.9653" y1="404.3083" y2="347.812"/>
    <line x1="335.9653" x2="182.3727" y1="347.812" y2="78.8753"/>
    <line x1="184.4761" x2="326.9218" y1="77.872" y2="354.3824"/>
    <line x1="326.9218" x2="57.4734" y1="354.3824" y2="260.605"/>
    <line x1="57.6805" x2="317.1261" y1="258.2838" y2="359.7677"/>
    <line x1="317.1261" x2="460.619" y1="359.7677" y2="408.1353"/>
    <line x1="459.2592" x2="306.7327" y1="410.0278" y2="363.8827"/>
    <line x1="306.7327" x2="255.965" y1="363.8827" y2="500.5402"/>
    <line x1="258.2838" x2="317.1261" y1="500.7716" y2="359.7677"/>
    <line x1="317.1261" x2="150.3168" y1="359.7677" y2="460.619"/>
    <line x1="148.4244" x2="306.7327" y1="459.2592" y2="363.8827"/>
    <line x1="306.7327" x2="99.193" y1="363.8827" y2="148.4244"/>
    <line x1="100.5726" x2="295.9055" y1="146.5463" y2="366.6627"/>
    <line x1="295.9055" x2="58.1677" y1="366.6627" y2="253.6487"/>
    <line x1="58.4477" x2="284.8153" y1="251.3353" y2="368.0637"/>
    <line x1="284.8153" x2="307.1169" y1="368.0637" y2="58.4477"/>
    <line x1="309.4273" x2="273.6369" y1="58.7518" y2="368.0637"/>
    <line x1="273.6369" x2="195.144" y1="368.0637" y2="73.1892"/>
    <line x1="197.3061" x2="262.5466" y1="72.32" y2="366.6627"/>
    <line x1="262.5466" x2="486.1322" y1="366.6627" y2="197.3061"/>
    <line x1="485.263" x2="273.6369" y1="195.144" y2="368.0637"/>
    <line x1="273.6369" x2="103.3904" y1="368.0637" y2="142.8339"/>
    <line x1="104.8283" x2="262.5466" y1="141.0001" y2="366.6627"/>
    <line x1="262.5466" x2="246.7177" y1="366.6627" y2="499.372"/>
    <line x1="249.0249" x2="273.6369" y1="499.7003" y2="368.0637"/>
    <line x1="273.6369" x2="415.6182" y1="368.0637" y2="103.3904"/>
    <line x1="417.452" x2="262.5466" y1="104.8283" y2="366.6627"/>
    <line x1="262.5466" x2="59.0802" y1="366.6627" y2="246.7177"/>
    <line x1="58.7518" x2="273.6369" y1="249.0249" y2="368.0637"/>
    <line x1="273.6369" x2="363.3082" y1="368.0637" y2="485.263"/>
    <line x1="365.4611" x2="284.8153" y1="484.3712" y2="368.0637"/>
    <line x1="284.8153" x2="456.4804" y1="368.0637" y2="413.7694"/>
    <line x1="457.8796" x2="295.9055" y1="411.9059" y2="366.6627"/>
    <line x1="295.9055" x2="367.6046" y1="366.6627" y2="483.4569"/>
    <line x1="369.7385" x2="306.7327" y1="482.5202" y2="363.8827"/>
    <line x1="306.7327" x2="75.9319" y1="363.8827" y2="369.7385"/>
    <line x1="76.8909" x2="317.1261" y1="371.8623" y2="359.7677"/>
    <line x1="317.1261" x2="97.8331" y1="359.7677" y2="150.3168"/>
    <line x1="96.4931" x2="326.9218" y1="152.2234" y2="354.3824"/>
    <line x1="326.9218" x2="297.8472" y1="354.3824" y2="57.4734"/>
    <line x1="295.524" x2="335.9653" y1="57.2905" y2="347.812"/>
    <line x1="335.9653" x2="376.0794" y1="347.812" y2="479.5768"/>
    <line x1="378.1721" x2="344.1139" y1="478.5516" y2="340.1598"/>
    <line x1="344.1139" x2="156.0781" y1="340.1598" y2="464.5787"/>
    <line x1="154.1439" x2="335.9653" y1="463.2789" y2="347.812"/>
    <line x1="335.9653" x2="501.1616" y1="347.812" y2="295.524"/>
    <line x1="500.9788" x2="326.9218" y1="297.8472" y2="354.3824"/>
    <line x1="326.9218" x2="260.605" y1="354.3824" y2="500.9788"/>
    <line x1="262.9281" x2="335.9653" y1="501.1616" y2="347.812"/>
    <line x1="335.9653" x2="404.3083" y1="347.812" y2="95.1732"/>
    <line x1="406.2288" x2="326.9218" y1="96.4931" y2="354.3824"/>
    <line x1="326.9218" x2="373.9761" y1="354.3824" y2="480.5801"/>
    <line x1="371.8623" x2="317.1261" y1="481.5612" y2="359.7677"/>
    <line x1="317.1261" x2="481.5612" y1="359.7677" y2="186.5898"/>
    <line x1="482.5202" x2="306.7327" y1="188.7137" y2="363.8827"/>
    <line x1="306.7327" x2="57.912" y1="363.8827" y2="255.965"/>
    <line x1="57.2905" x2="335.9653" y1="262.9281" y2="347.812"/>
    <line x1="335.9653" x2="479.5768" y1="347.812" y2="182.3727"/>
    <line x1="480.5801" x2="326.9218" y1="184.4761" y2="354.3824"/>
    <line x1="326.9218" x2="152.2234" y1="354.3824" y2="461.959"/>
    <line x1="146.5463" x2="295.9055" y1="457.8796" y2="366.6627"/>
    <line x1="295.9055" x2="411.9059" y1="366.6627" y2="100.5726"/>
    <line x1="410.0278" x2="306.7327" y1="99.193" y2="363.8827"/>
    <line x1="306.7327" x2="500.5402" y1="363.8827" y2="302.4871"/>
    <line x1="500.2844" x2="295.9055" y1="304.8034" y2="366.6627"/>
    <line x1="295.9055" x2="483.4569" y1="366.6627" y2="190.8475"/>
    <line x1="484.3712" x2="284.8153" y1="192.991" y2="368.0637"/>
    <line x1="284.8153" x2="74.081" y1="368.0637" y2="365.4611"/>
    <line x1="73.1892" x2="273.6369" y1="363.3082" y2="368.0637"/>
    <line x1="273.6369" x2="455.0617" y1="368.0637" y2="415.6182"/>
    <line x1="453.6238" x2="262.5466" y1="417.452" y2="366.6627"/>
    <line x1="262.5466" x2="311.7344" y1="366.6627" y2="59.0802"/>
    <line x1="314.0379" x2="251.7195" y1="59.4327" y2="363.8827"/>
    <line x1="251.7195" x2="452.1668" y1="363.8827" y2="419.2707"/>
    <line x1="450.6908" x2="241.3261" y1="421.074" y2="359.7677"/>
    <line x1="241.3261" x2="421.074" y1="359.7677" y2="107.7613"/>
    <line x1="419.2707" x2="251.7195" y1="106.2853" y2="363.8827"/>
    <line x1="251.7195" x2="244.4142" y1="363.8827" y2="499.0195"/>
    <line x1="242.1145" x2="241.3261" y1="498.6429" y2="359.7677"/>
    <line x1="241.3261" x2="201.6572" y1="359.7677" y2="70.6497"/>
    <line x1="199.4773" x2="251.7195" y1="71.4735" y2="363.8827"/>
    <line x1="251.7195" x2="499.0195" y1="363.8827" y2="314.0379"/>
    <line x1="498.6429" x2="241.3261" y1="316.3376" y2="359.7677"/>
    <line x1="241.3261" x2="487.8024" y1="359.7677" y2="201.6572"/>
    <line x1="486.9787" x2="251.7195" y1="199.4773" y2="363.8827"/>
    <line x1="251.7195" x2="71.4735" y1="363.8827" y2="358.9748"/>
    <line x1="70.6497" x2="241.3261" y1="356.7949" y2="359.7677"/>
    <line x1="241.3261" x2="107.7613" y1="359.7677" y2="137.3781"/>
    <line x1="106.2853" x2="251.7195" y1="139.1814" y2="363.8827"/>
    <line x1="251.7195" x2="358.9748" y1="363.8827" y2="486.9787"/>
    <line x1="356.7949" x2="241.3261" y1="487.8024" y2="359.7677"/>
    <line x1="241.3261" x2="137.3781" y1="359.7677" y2="450.6908"/>
    <line x1="135.5903" x2="231.5304" y1="449.196" y2="354.3824"/>
    <line x1="231.5304" x2="422.8618" y1="354.3824" y2="109.2561"/>
    <line x1="424.6338" x2="222.4869" y1="110.7696" y2="347.812"/>
    <line x1="222.4869" x2="110.7696" y1="347.812" y2="133.8183"/>
    <line x1="109.2561" x2="231.5304" y1="135.5903" y2="354.3824"/>
    <line x1="231.5304" x2="69.8489" y1="354.3824" y2="354.6065"/>
    <line x1="69.071" x2="222.4869" y1="352.4098" y2="347.812"/>
    <line x1="222.4869" x2="352.4098" y1="347.812" y2="489.3811"/>
    <line x1="354.6065" x2="231.5304" y1="488.6032" y2="354.3824"/>
    <line x1="231.5304" x2="239.8188" y1="354.3824" y2="498.2422"/>
    <line x1="237.5275" x2="222.4869" y1="497.8175" y2="347.812"/>
    <line x1="222.4869" x2="206.0423" y1="347.812" y2="69.071"/>
    <line x1="208.247" x2="214.3382" y1="68.3162" y2="340.1598"/>
    <line x1="214.3382" x2="132.0623" y1="340.1598" y2="446.1506"/>
    <line x1="130.3223" x2="207.2128" y1="444.6004" y2="331.5467"/>
    <line x1="207.2128" x2="490.8677" y1="331.5467" y2="210.4595"/>
    <line x1="491.5762" x2="201.2231" y1="212.6796" y2="322.1085"/>
    <line x1="201.2231" x2="128.5987" y1="322.1085" y2="443.0321"/>
    <line x1="126.8916" x2="196.4636" y1="441.4458" y2="311.994"/>
    <line x1="196.4636" x2="117.0064" y1="311.994" y2="126.8916"/>
    <line x1="115.4201" x2="201.2231" y1="128.5987" y2="322.1085"/>
    <line x1="201.2231" x2="429.8534" y1="322.1085" y2="115.4201"/>
    <line x1="431.5605" x2="196.4636" y1="117.0064" y2="311.994"/>
    <line x1="196.4636" x2="343.5452" y1="311.994" y2="492.2614"/>
    <line x1="341.3108" x2="193.0093" y1="492.9232" y2="301.3628"/>
    <line x1="193.0093" x2="63.1165" y1="301.3628" y2="226.1445"/>
    <line x1="62.5725" x2="196.4636" y1="228.4104" y2="311.994"/>
    <line x1="196.4636" x2="495.8796" y1="311.994" y2="330.0417"/>
    <line x1="496.3999" x2="201.2231" y1="327.7702" y2="322.1085"/>
    <line x1="201.2231" x2="230.682" y1="322.1085" y2="496.3999"/>
    <line x1="228.4104" x2="196.4636" y1="495.8796" y2="311.994"/>
    <line x1="196.4636" x2="330.0417" y1="311.994" y2="62.5725"/>
    <line x1="327.7702" x2="201.2231" y1="62.0522" y2="322.1085"/>
    <line x1="201.2231" x2="345.7726" y1="322.1085" y2="491.5762"/>
    <line x1="347.9926" x2="207.2128" y1="490.8677" y2="331.5467"/>
    <line x1="207.2128" x2="113.8517" y1="331.5467" y2="130.3223"/>
    <line x1="112.3015" x2="214.3382" y1="132.0623" y2="340.1598"/>
    <line x1="214.3382" x2="61.0832" y1="340.1598" y2="235.2408"/>
    <line x1="60.6346" x2="222.4869" y1="237.5275" y2="347.812"/>
    <line x1="222.4869" x2="489.3811" y1="347.812" y2="206.0423"/>
    <line x1="490.136" x2="214.3382" y1="208.247" y2="340.1598"/>
    <line x1="214.3382" x2="426.3899" y1="340.1598" y2="112.3015"/>
    <line x1="428.1298" x2="207.2128" y1="113.8517" y2="331.5467"/>
    <line x1="207.2128" x2="444.6004" y1="331.5467" y2="428.1298"/>
    <line x1="446.1506" x2="214.3382" y1="426.3899" y2="340.1598"/>
    <line x1="214.3382" x2="350.2051" y1="340.1598" y2="490.136"/>
    <line x1="361.146" x2="262.5466" y1="486.1322" y2="366.6627"/>
    <line x1="262.5466" x2="72.32" y1="366.6627" y2="361.146"/>
    <line x1="74.9952" x2="295.9055" y1="367.6046" y2="366.6627"/>
    <line x1="295.9055" x2="304.8034" y1="366.6627" y2="58.1677"/>
    <line x1="302.4871" x2="306.7327" y1="57.912" y2="363.8827"/>
    <line x1="306.7327" x2="188.7137" y1="363.8827" y2="75.9319"/>
    <line x1="186.5898" x2="317.1261" y1="76.8909" y2="359.7677"/>
    <line x1="317.1261" x2="300.1683" y1="359.7677" y2="57.6805"/>
    <line x1="288.5448" x2="357.229" y1="56.8881" y2="322.1085"/>
    <line x1="357.229" x2="176.1273" y1="322.1085" y2="82.0164"/>
    <line x1="178.1981" x2="351.2393" y1="80.9476" y2="331.5467"/>
    <line x1="351.2393" x2="400.4263" y1="331.5467" y2="92.5941"/>
    <line x1="398.4653" x2="357.229" y1="91.3351" y2="322.1085"/>
    <line x1="357.229" x2="501.564" y1="322.1085" y2="288.5448"/>
    <line x1="501.6494" x2="361.9885" y1="286.216" y2="311.994"/>
    <line x1="361.9885" x2="475.3453" y1="311.994" y2="174.0679"/>
    <line x1="474.2334" x2="365.4428" y1="172.0199" y2="301.3628"/>
    <line x1="365.4428" x2="501.7104" y1="301.3628" y2="283.8864"/>
    <line x1="501.747" x2="367.5374" y1="281.5564" y2="290.3824"/>
    <line x1="367.5374" x2="392.5047" y1="290.3824" y2="87.6824"/>
    <line x1="394.5042" x2="365.4428" y1="88.8792" y2="301.3628"/>
    <line x1="365.4428" x2="469.573" y1="301.3628" y2="394.5042"/>
    <line x1="470.7697" x2="367.5374" y1="392.5047" y2="290.3824"/>
    <line x1="367.5374" x2="388.4684" y1="290.3824" y2="473.1"/>
    <line x1="406.2288" x2="326.9218" y1="461.959" y2="204.0697"/>
    <line x1="326.9218" x2="373.9761" y1="204.0697" y2="77.872"/>
    <line x1="371.8623" x2="317.1261" y1="76.8909" y2="198.6845"/>
    <line x1="317.1261" x2="500.7716" y1="198.6845" y2="258.2838"/>
    <line x1="500.5402" x2="306.7327" y1="255.965" y2="194.5694"/>
    <line x1="306.7327" x2="255.965" y1="194.5694" y2="57.912"/>
    <line x1="258.2838" x2="317.1261" y1="57.6805" y2="198.6845"/>
    <line x1="317.1261" x2="57.6805" y1="198.6845" y2="300.1683"/>
    <line x1="57.4734" x2="326.9218" y1="297.8472" y2="204.0697"/>
    <line x1="326.9218" x2="461.959" y1="204.0697" y2="152.2234"/>
    <line x1="460.619" x2="317.1261" y1="150.3168" y2="198.6845"/>
    <line x1="317.1261" x2="408.1353" y1="198.6845" y2="460.619"/>
    <line x1="410.0278" x2="306.7327" y1="459.2592" y2="194.5694"/>
    <line x1="306.7327" x2="482.5202" y1="194.5694" y2="369.7385"/>
    <line x1="483.4569" x2="295.9055" y1="367.6046" y2="191.7895"/>
    <line x1="295.9055" x2="100.5726" y1="191.7895" y2="411.9059"/>
    <line x1="101.9718" x2="284.8153" y1="413.7694" y2="190.3885"/>
    <line x1="284.8153" x2="456.4804" y1="190.3885" y2="144.6827"/>
    <line x1="455.0617" x2="273.6369" y1="142.8339" y2="190.3885"/>
    <line x1="273.6369" x2="103.3904" y1="190.3885" y2="415.6182"/>
    <line x1="104.8283" x2="262.5466" y1="417.452" y2="191.7895"/>
    <line x1="262.5466" x2="499.372" y1="191.7895" y2="246.7177"/>
    <line x1="499.0195" x2="251.7195" y1="244.4142" y2="194.5694"/>
    <line x1="251.7195" x2="139.1814" y1="194.5694" y2="106.2853"/>
    <line x1="141.0001" x2="262.5466" y1="104.8283" y2="191.7895"/>
    <line x1="262.5466" x2="59.0802" y1="191.7895" y2="311.7344"/>
    <line x1="58.7518" x2="273.6369" y1="309.4273" y2="190.3885"/>
    <line x1="273.6369" x2="249.0249" y1="190.3885" y2="58.7518"/>
    <line x1="246.7177" x2="262.5466" y1="59.0802" y2="191.7895"/>
    <line x1="262.5466" x2="361.146" y1="191.7895" y2="72.32"/>
    <line x1="363.3082" x2="273.6369" y1="73.1892" y2="190.3885"/>
    <line x1="273.6369" x2="195.144" y1="190.3885" y2="485.263"/>
    <line x1="192.991" x2="284.8153" y1="484.3712" y2="190.3885"/>
    <line x1="284.8153" x2="484.3712" y1="190.3885" y2="365.4611"/>
    <line x1="485.263" x2="273.6369" y1="363.3082" y2="190.3885"/>
    <line x1="273.6369" x2="499.7003" y1="190.3885" y2="249.0249"/>
    <line x1="500.0045" x2="284.8153" y1="251.3353" y2="190.3885"/>
    <line x1="284.8153" x2="413.7694" y1="190.3885" y2="456.4804"/>
    <line x1="411.9059" x2="295.9055" y1="457.8796" y2="191.7895"/>
    <line x1="295.9055" x2="304.8034" y1="191.7895" y2="500.2844"/>
    <line x1="302.4871" x2="306.7327" y1="500.5402" y2="194.5694"/>
    <line x1="306.7327" x2="99.193" y1="194.5694" y2="410.0278"/>
    <line x1="97.8331" x2="317.1261" y1="408.1353" y2="198.6845"/>
    <line x1="317.1261" x2="186.5898" y1="198.6845" y2="481.5612"/>
    <line x1="188.7137" x2="306.7327" y1="482.5202" y2="194.5694"/>
    <line x1="306.7327" x2="75.9319" y1="194.5694" y2="188.7137"/>
    <line x1="76.8909" x2="317.1261" y1="186.5898" y2="198.6845"/>
    <line x1="317.1261" x2="150.3168" y1="198.6845" y2="97.8331"/>
    <line x1="152.2234" x2="326.9218" y1="96.4931" y2="204.0697"/>
    <line x1="326.9218" x2="77.872" y1="204.0697" y2="184.4761"/>
    <line x1="78.8753" x2="335.9653" y1="182.3727" y2="210.6402"/>
    <line x1="335.9653" x2="182.3727" y1="210.6402" y2="479.5768"/>
    <line x1="184.4761" x2="326.9218" y1="480.5801" y2="204.0697"/>
    <line x1="326.9218" x2="500.9788" y1="204.0697" y2="260.605"/>
    <line x1="501.1616" x2="335.9653" y1="262.9281" y2="210.6402"/>
    <line x1="335.9653" x2="57.2905" y1="210.6402" y2="295.524"/>
    <line x1="57.912" x2="306.7327" y1="302.4871" y2="194.5694"/>
    <line x1="306.7327" x2="148.4244" y1="194.5694" y2="99.193"/>
    <line x1="146.5463" x2="295.9055" y1="100.5726" y2="191.7895"/>
    <line x1="295.9055" x2="74.9952" y1="191.7895" y2="190.8475"/>
    <line x1="74.081" x2="284.8153" y1="192.991" y2="190.3885"/>
    <line x1="284.8153" x2="307.1169" y1="190.3885" y2="500.0045"/>
    <line x1="309.4273" x2="273.6369" y1="499.7003" y2="190.3885"/>
    <line x1="273.6369" x2="73.1892" y1="190.3885" y2="195.144"/>
    <line x1="72.32" x2="262.5466" y1="197.3061" y2="191.7895"/>
    <line x1="262.5466" x2="197.3061" y1="191.7895" y2="486.1322"/>
    <line x1="199.4773" x2="251.7195" y1="486.9787" y2="194.5694"/>
    <line x1="251.7195" x2="452.1668" y1="194.5694" y2="139.1814"/>
    <line x1="453.6238" x2="262.5466" y1="141.0001" y2="191.7895"/>
    <line x1="262.5466" x2="486.1322" y1="191.7895" y2="361.146"/>
    <line x1="486.9787" x2="251.7195" y1="358.9748" y2="194.5694"/>
    <line x1="251.7195" x2="59.4327" y1="194.5694" y2="314.0379"/>
    <line x1="59.8093" x2="241.3261" y1="316.3376" y2="198.6845"/>
    <line x1="241.3261" x2="137.3781" y1="198.6845" y2="107.7613"/>
    <line x1="135.5903" x2="231.5304" y1="109.2561" y2="204.0697"/>
    <line x1="231.5304" x2="60.2099" y1="204.0697" y2="318.6333"/>
    <line x1="60.6346" x2="222.4869" y1="320.9246" y2="210.6402"/>
    <line x1="222.4869" x2="237.5275" y1="210.6402" y2="60.6346"/>
    <line x1="235.2408" x2="214.3382" y1="61.0832" y2="218.2923"/>
    <line x1="214.3382" x2="497.3689" y1="218.2923" y2="235.2408"/>
    <line x1="496.8963" x2="207.2128" y1="232.9588" y2="226.9054"/>
    <line x1="207.2128" x2="113.8517" y1="226.9054" y2="428.1298"/>
    <line x1="112.3015" x2="214.3382" y1="426.3899" y2="218.2923"/>
    <line x1="214.3382" x2="132.0623" y1="218.2923" y2="112.3015"/>
    <line x1="130.3223" x2="207.2128" y1="113.8517" y2="226.9054"/>
    <line x1="207.2128" x2="67.5845" y1="226.9054" y2="210.4595"/>
    <line x1="66.876" x2="201.2231" y1="212.6796" y2="236.3436"/>
    <line x1="201.2231" x2="429.8534" y1="236.3436" y2="443.0321"/>
    <line x1="428.1298" x2="207.2128" y1="444.6004" y2="226.9054"/>
    <line x1="207.2128" x2="325.4933" y1="226.9054" y2="496.8963"/>
    <line x1="323.2114" x2="214.3382" y1="497.3689" y2="218.2923"/>
    <line x1="214.3382" x2="68.3162" y1="218.2923" y2="208.247"/>
    <line x1="69.071" x2="222.4869" y1="206.0423" y2="210.6402"/>
    <line x1="222.4869" x2="489.3811" y1="210.6402" y2="352.4098"/>
    <line x1="488.6032" x2="231.5304" y1="354.6065" y2="204.0697"/>
    <line x1="231.5304" x2="498.2422" y1="204.0697" y2="239.8188"/>
    <line x1="498.6429" x2="241.3261" y1="242.1145" y2="198.6845"/>
    <line x1="241.3261" x2="421.074" y1="198.6845" y2="450.6908"/>
    <line x1="422.8618" x2="231.5304" y1="449.196" y2="204.0697"/>
    <line x1="231.5304" x2="69.8489" y1="204.0697" y2="203.8456"/>
    <line x1="70.6497" x2="241.3261" y1="201.6572" y2="198.6845"/>
    <line x1="241.3261" x2="450.6908" y1="198.6845" y2="137.3781"/>
    <line x1="449.196" x2="231.5304" y1="135.5903" y2="204.0697"/>
    <line x1="231.5304" x2="318.6333" y1="204.0697" y2="498.2422"/>
    <line x1="320.9246" x2="222.4869" y1="497.8175" y2="210.6402"/>
    <line x1="222.4869" x2="110.7696" y1="210.6402" y2="424.6338"/>
    <line x1="109.2561" x2="231.5304" y1="422.8618" y2="204.0697"/>
    <line x1="231.5304" x2="354.6065" y1="204.0697" y2="69.8489"/>
    <line x1="352.4098" x2="222.4869" y1="69.071" y2="210.6402"/>
    <line x1="222.4869" x2="424.6338" y1="210.6402" y2="447.6826"/>
    <line x1="426.3899" x2="214.3382" y1="446.1506" y2="218.2923"/>
    <line x1="214.3382" x2="490.136" y1="218.2923" y2="350.2051"/>
    <line x1="490.8677" x2="207.2128" y1="347.9926" y2="226.9054"/>
    <line x1="207.2128" x2="61.5558" y1="226.9054" y2="325.4933"/>
    <line x1="62.0522" x2="201.2231" y1="327.7702" y2="236.3436"/>
    <line x1="201.2231" x2="491.5762" y1="236.3436" y2="345.7726"/>
    <line x1="492.2614" x2="196.4636" y1="343.5452" y2="246.4581"/>
    <line x1="196.4636" x2="228.4104" y1="246.4581" y2="62.5725"/>
    <line x1="226.1445" x2="193.0093" y1="63.1165" y2="257.0894"/>
    <line x1="193.0093" x2="63.1165" y1="257.0894" y2="332.3077"/>
    <line x1="63.6842" x2="190.9147" y1="334.5678" y2="268.0697"/>
    <line x1="190.9147" x2="223.8843" y1="268.0697" y2="63.6842"/>
    <line x1="221.6302" x2="190.2128" y1="64.2755" y2="279.2261"/>
    <line x1="190.2128" x2="121.8714" y1="279.2261" y2="121.8714"/>
    <line x1="120.2322" x2="190.9147" y1="123.5278" y2="290.3824"/>
    <line x1="190.9147" x2="493.5617" y1="290.3824" y2="219.3825"/>
    <line x1="494.1766" x2="190.2128" y1="221.6302" y2="279.2261"/>
    <line x1="190.2128" x2="336.8219" y1="279.2261" y2="64.2755"/>
    <line x1="339.0696" x2="190.9147" y1="64.8905" y2="268.0697"/>
    <line x1="190.9147" x2="219.3825" y1="268.0697" y2="493.5617"/>
    <line x1="221.6302" x2="190.2128" y1="494.1766" y2="279.2261"/>
    <line x1="190.2128" x2="336.8219" y1="279.2261" y2="494.1766"/>
    <line x1="339.0696" x2="190.9147" y1="493.5617" y2="290.3824"/>
    <line x1="190.9147" x2="438.2199" y1="290.3824" y2="434.9244"/>
    <line x1="436.5808" x2="190.2128" y1="436.5808" y2="279.2261"/>
    <line x1="190.2128" x2="494.1766" y1="279.2261" y2="336.8219"/>
    <line x1="493.5617" x2="190.9147" y1="339.0696" y2="268.0697"/>
    <line x1="190.9147" x2="334.5678" y1="268.0697" y2="494.7679"/>
    <line x1="332.3077" x2="193.0093" y1="495.3356" y2="257.0894"/>
    <line x1="193.0093" x2="495.3356" y1="257.0894" y2="226.1445"/>
    <line x1="495.8796" x2="196.4636" y1="228.4104" y2="246.4581"/>
    <line x1="196.4636" x2="330.0417" y1="246.4581" y2="495.8796"/>
    <line x1="327.7702" x2="201.2231" y1="496.3999" y2="236.3436"/>
    <line x1="201.2231" x2="115.4201" y1="236.3436" y2="429.8534"/>
    <line x1="117.0064" x2="196.4636" y1="431.5605" y2="246.4581"/>
    <line x1="196.4636" x2="126.8916" y1="246.4581" y2="117.0064"/>
    <line x1="128.5987" x2="201.2231" y1="115.4201" y2="236.3436"/>
    <line x1="201.2231" x2="496.3999" y1="236.3436" y2="230.682"/>
    <line x1="497.8175" x2="222.4869" y1="237.5275" y2="210.6402"/>
    <line x1="222.4869" x2="206.0423" y1="210.6402" y2="489.3811"/>
    <line x1="208.247" x2="214.3382" y1="490.136" y2="218.2923"/>
    <line x1="214.3382" x2="350.2051" y1="218.2923" y2="68.3162"/>
    <line x1="347.9926" x2="207.2128" y1="67.5845" y2="226.9054"/>
    <line x1="207.2128" x2="232.9588" y1="226.9054" y2="61.5558"/>
    <line x1="230.682" x2="201.2231" y1="62.0522" y2="236.3436"/>
    <line x1="201.2231" x2="212.6796" y1="236.3436" y2="491.5762"/>
    <line x1="214.9069" x2="196.4636" y1="492.2614" y2="246.4581"/>
    <line x1="196.4636" x2="62.5725" y1="246.4581" y2="330.0417"/>
    <line x1="61.0832" x2="214.3382" y1="323.2114" y2="218.2923"/>
    <line x1="214.3382" x2="446.1506" y1="218.2923" y2="132.0623"/>
    <line x1="444.6004" x2="207.2128" y1="130.3223" y2="226.9054"/>
    <line x1="207.2128" x2="210.4595" y1="226.9054" y2="490.8677"/>
    <line x1="217.1413" x2="193.0093" y1="492.9232" y2="257.0894"/>
    <line x1="193.0093" x2="118.6105" y1="257.0894" y2="433.2509"/>
    <line x1="120.2322" x2="190.9147" y1="434.9244" y2="268.0697"/>
    <line x1="190.9147" x2="123.5278" y1="268.0697" y2="120.2322"/>
    <line x1="125.2013" x2="193.0093" y1="118.6105" y2="257.0894"/>
    <line x1="193.0093" x2="439.8416" y1="257.0894" y2="125.2013"/>
    <line x1="438.2199" x2="190.9147" y1="123.5278" y2="268.0697"/>
    <line x1="190.9147" x2="64.8905" y1="268.0697" y2="219.3825"/>
    <line x1="64.2755" x2="190.2128" y1="221.6302" y2="279.2261"/>
    <line x1="190.2128" x2="436.5808" y1="279.2261" y2="121.8714"/>
    <line x1="434.9244" x2="190.9147" y1="120.2322" y2="290.3824"/>
    <line x1="190.9147" x2="63.6842" y1="290.3824" y2="223.8843"/>
    <line x1="62.0522" x2="201.2231" y1="230.682" y2="322.1085"/>
    <line x1="201.2231" x2="212.6796" y1="322.1085" y2="66.876"/>
    <line x1="214.9069" x2="196.4636" y1="66.1907" y2="311.994"/>
    <line x1="196.4636" x2="66.1907" y1="311.994" y2="343.5452"/>
    <line x1="65.5289" x2="193.0093" y1="341.3108" y2="301.3628"/>
    <line x1="193.0093" x2="118.6105" y1="301.3628" y2="125.2013"/>
    <line x1="133.8183" x2="222.4869" y1="110.7696" y2="210.6402"/>
    <line x1="222.4869" x2="447.6826" y1="210.6402" y2="133.8183"/>
    <line x1="443.0321" x2="201.2231" y1="128.5987" y2="236.3436"/>
    <line x1="201.2231" x2="345.7726" y1="236.3436" y2="66.876"/>
    <line x1="343.5452" x2="196.4636" y1="66.1907" y2="246.4581"/>
    <line x1="196.4636" x2="66.1907" y1="246.4581" y2="214.9069"/>
    <line x1="65.5289" x2="193.0093" y1="217.1413" y2="257.0894"/>
    <line x1="193.0093" x2="341.3108" y1="257.0894" y2="65.5289"/>
    <line x1="334.5678" x2="190.9147" y1="63.6842" y2="290.3824"/>
    <line x1="190.9147" x2="223.8843" y1="290.3824" y2="494.7679"/>
    <line x1="226.1445" x2="193.0093" y1="495.3356" y2="301.3628"/>
    <line x1="193.0093" x2="439.8416" y1="301.3628" y2="433.2509"/>
    <line x1="441.4458" x2="196.4636" y1="431.5605" y2="311.994"/>
    <line x1="196.4636" x2="492.2614" y1="311.994" y2="214.9069"/>
    <line x1="492.9232" x2="193.0093" y1="217.1413" y2="301.3628"/>
    <line x1="193.0093" x2="495.3356" y1="301.3628" y2="332.3077"/>
    <line x1="494.7679" x2="190.9147" y1="334.5678" y2="290.3824"/>
    <line x1="190.9147" x2="64.8905" y1="290.3824" y2="339.0696"/>
    <line x1="64.2755" x2="190.2128" y1="336.8219" y2="279.2261"/>
    <line x1="190.2128" x2="121.8714" y1="279.2261" y2="436.5808"/>
    <line x1="123.5278" x2="190.9147" y1="438.2199" y2="290.3824"/>
    <line x1="190.9147" x2="219.3825" y1="290.3824" y2="64.8905"/>
    <line x1="217.1413" x2="193.0093" y1="65.5289" y2="301.3628"/>
    <line x1="193.0093" x2="125.2013" y1="301.3628" y2="439.8416"/>
    <line x1="133.8183" x2="222.4869" y1="447.6826" y2="347.812"/>
    <line x1="222.4869" x2="447.6826" y1="347.812" y2="424.6338"/>
    <line x1="449.196" x2="231.5304" y1="422.8618" y2="354.3824"/>
    <line x1="231.5304" x2="203.8456" y1="354.3824" y2="69.8489"/>
    <line x1="210.4595" x2="207.2128" y1="67.5845" y2="331.5467"/>
    <line x1="207.2128" x2="232.9588" y1="331.5467" y2="496.8963"/>
    <line x1="235.2408" x2="214.3382" y1="497.3689" y2="340.1598"/>
    <line x1="214.3382" x2="68.3162" y1="340.1598" y2="350.2051"/>
    <line x1="67.5845" x2="207.2128" y1="347.9926" y2="331.5467"/>
    <line x1="207.2128" x2="496.8963" y1="331.5467" y2="325.4933"/>
    <line x1="497.3689" x2="214.3382" y1="323.2114" y2="340.1598"/>
    <line x1="214.3382" x2="323.2114" y1="340.1598" y2="61.0832"/>
    <line x1="320.9246" x2="222.4869" y1="60.6346" y2="347.812"/>
    <line x1="222.4869" x2="497.8175" y1="347.812" y2="320.9246"/>
    <line x1="498.2422" x2="231.5304" y1="318.6333" y2="354.3824"/>
    <line x1="231.5304" x2="488.6032" y1="354.3824" y2="203.8456"/>
    <line x1="494.7679" x2="190.9147" y1="223.8843" y2="268.0697"/>
    <line x1="190.9147" x2="434.9244" y1="268.0697" y2="438.2199"/>
    <line x1="433.2509" x2="193.0093" y1="439.8416" y2="257.0894"/>
    <line x1="193.0093" x2="492.9232" y1="257.0894" y2="341.3108"/>
    <line x1="487.8024" x2="241.3261" y1="356.7949" y2="198.6845"/>
    <line x1="241.3261" x2="356.7949" y1="198.6845" y2="70.6497"/>
    <line x1="358.9748" x2="251.7195" y1="71.4735" y2="194.5694"/>
    <line x1="251.7195" x2="244.4142" y1="194.5694" y2="59.4327"/>
    <line x1="242.1145" x2="241.3261" y1="59.8093" y2="198.6845"/>
    <line x1="241.3261" x2="107.7613" y1="198.6845" y2="421.074"/>
    <line x1="106.2853" x2="251.7195" y1="419.2707" y2="194.5694"/>
    <line x1="251.7195" x2="71.4735" y1="194.5694" y2="199.4773"/>
    <line x1="79.9005" x2="344.1139" y1="180.28" y2="218.2923"/>
    <line x1="344.1139" x2="180.28" y1="218.2923" y2="478.5516"/>
    <line x1="190.8475" x2="295.9055" y1="483.4569" y2="191.7895"/>
    <line x1="295.9055" x2="457.8796" y1="191.7895" y2="146.5463"/>
    <line x1="459.2592" x2="306.7327" y1="148.4244" y2="194.5694"/>
    <line x1="306.7327" x2="369.7385" y1="194.5694" y2="75.9319"/>
    <line x1="367.6046" x2="295.9055" y1="74.9952" y2="191.7895"/>
    <line x1="295.9055" x2="500.2844" y1="191.7895" y2="253.6487"/>
    <line x1="500.7716" x2="317.1261" y1="300.1683" y2="359.7677"/>
    <line x1="317.1261" x2="408.1353" y1="359.7677" y2="97.8331"/>
    <line x1="413.7694" x2="284.8153" y1="101.9718" y2="368.0637"/>
    <line x1="284.8153" x2="500.0045" y1="368.0637" y2="307.1169"/>
    <line x1="499.7003" x2="273.6369" y1="309.4273" y2="368.0637"/>
    <line x1="273.6369" x2="142.8339" y1="368.0637" y2="455.0617"/>
    <line x1="144.6827" x2="284.8153" y1="456.4804" y2="368.0637"/>
    <line x1="284.8153" x2="251.3353" y1="368.0637" y2="500.0045"/>
    <line x1="253.6487" x2="295.9055" y1="500.2844" y2="366.6627"/>
    <line x1="295.9055" x2="190.8475" y1="366.6627" y2="74.9952"/>
    <line x1="192.991" x2="284.8153" y1="74.081" y2="368.0637"/>
    <line x1="284.8153" x2="101.9718" y1="368.0637" y2="144.6827"/>
    <line x1="95.1732" x2="335.9653" y1="154.1439" y2="347.812"/>
    <line x1="335.9653" x2="78.8753" y1="347.812" y2="376.0794"/>
    <line x1="77.872" x2="326.9218" y1="373.9761" y2="354.3824"/>
    <line x1="326.9218" x2="461.959" y1="354.3824" y2="406.2288"/>
    <line x1="465.8581" x2="351.2393" y1="400.4263" y2="331.5467"/>
    <line x1="351.2393" x2="477.5046" y1="331.5467" y2="178.1981"/>
    <line x1="476.4357" x2="357.229" y1="176.1273" y2="322.1085"/>
    <line x1="357.229" x2="56.8881" y1="322.1085" y2="269.9073"/>
    <line x1="56.7051" x2="367.5374" y1="281.5564" y2="268.0697"/>
    <line x1="367.5374" x2="470.7697" y1="268.0697" y2="165.9475"/>
    <line x1="469.573" x2="365.4428" y1="163.9479" y2="257.0894"/>
    <line x1="365.4428" x2="56.7417" y1="257.0894" y2="283.8864"/>
    <line x1="58.1677" x2="295.9055" y1="304.8034" y2="191.7895"/>
    <line x1="295.9055" x2="253.6487" y1="191.7895" y2="58.1677"/>
    <line x1="251.3353" x2="284.8153" y1="58.4477" y2="190.3885"/>
    <line x1="284.8153" x2="144.6827" y1="190.3885" y2="101.9718"/>
    <line x1="142.8339" x2="273.6369" y1="103.3904" y2="190.3885"/>
    <line x1="273.6369" x2="415.6182" y1="190.3885" y2="455.0617"/>
    <line x1="417.452" x2="262.5466" y1="453.6238" y2="191.7895"/>
    <line x1="262.5466" x2="311.7344" y1="191.7895" y2="499.372"/>
    <line x1="314.0379" x2="251.7195" y1="499.0195" y2="194.5694"/>
    <line x1="251.7195" x2="419.2707" y1="194.5694" y2="452.1668"/>
    <line x1="431.5605" x2="196.4636" y1="441.4458" y2="246.4581"/>
    <line x1="196.4636" x2="441.4458" y1="246.4581" y2="126.8916"/>
    <line x1="433.2509" x2="193.0093" y1="118.6105" y2="301.3628"/>
    <line x1="193.0093" x2="332.3077" y1="301.3628" y2="63.1165"/>
    <line x1="325.4933" x2="207.2128" y1="61.5558" y2="331.5467"/>
    <line x1="207.2128" x2="61.5558" y1="331.5467" y2="232.9588"/>
    <line x1="60.2099" x2="231.5304" y1="239.8188" y2="354.3824"/>
    <line x1="231.5304" x2="318.6333" y1="354.3824" y2="60.2099"/>
    <line x1="316.3376" x2="241.3261" y1="59.8093" y2="359.7677"/>
    <line x1="241.3261" x2="59.8093" y1="359.7677" y2="242.1145"/>
    <line x1="59.4327" x2="251.7195" y1="244.4142" y2="363.8827"/>
    <line x1="251.7195" x2="139.1814" y1="363.8827" y2="452.1668"/>
    <line x1="141.0001" x2="262.5466" y1="453.6238" y2="366.6627"/>
    <line x1="262.5466" x2="499.372" y1="366.6627" y2="311.7344"/>
    <line x1="481.5612" x2="317.1261" y1="371.8623" y2="198.6845"/>
    <line x1="317.1261" x2="300.1683" y1="198.6845" y2="500.7716"/>
    <line x1="297.8472" x2="326.9218" y1="500.9788" y2="204.0697"/>
    <line x1="326.9218" x2="260.605" y1="204.0697" y2="57.4734"/>
    <line x1="262.9281" x2="335.9653" y1="57.2905" y2="210.6402"/>
    <line x1="335.9653" x2="95.1732" y1="210.6402" y2="404.3083"/>
    <line x1="96.4931" x2="326.9218" y1="406.2288" y2="204.0697"/>
    <line x1="326.9218" x2="480.5801" y1="204.0697" y2="373.9761"/>
    <line x1="468.3554" x2="361.9885" y1="396.4912" y2="311.994"/>
    <line x1="361.9885" x2="90.0968" y1="311.994" y2="161.9609"/>
    <line x1="93.8735" x2="344.1139" y1="156.0781" y2="340.1598"/>
    <line x1="344.1139" x2="79.9005" y1="340.1598" y2="378.1721"/>
    <line x1="66.876" x2="201.2231" y1="345.7726" y2="322.1085"/>
    <line x1="201.2231" x2="443.0321" y1="322.1085" y2="429.8534"/>
    <line x1="467.117" x2="357.229" y1="398.4653" y2="322.1085"/>
    <line x1="357.229" x2="159.9868" y1="322.1085" y2="467.117"/>
    <line x1="161.9609" x2="361.9885" y1="468.3554" y2="311.994"/>
    <line x1="361.9885" x2="396.4912" y1="311.994" y2="90.0968"/>
    <line x1="402.374" x2="344.1139" y1="93.8735" y2="340.1598"/>
    <line x1="344.1139" x2="478.5516" y1="340.1598" y2="180.28"/>
    <line x1="468.3554" x2="361.9885" y1="161.9609" y2="246.4581"/>
    <line x1="361.9885" x2="161.9609" y1="246.4581" y2="90.0968"/>
    <line x1="180.28" x2="344.1139" y1="79.9005" y2="340.1598"/>
    <line x1="344.1139" x2="265.2531" y1="340.1598" y2="501.3201"/>
    <line x1="267.5796" x2="351.2393" y1="501.4542" y2="331.5467"/>
    <line x1="351.2393" x2="158.0258" y1="331.5467" y2="465.8581"/>
    <line x1="201.6572" x2="241.3261" y1="487.8024" y2="198.6845"/>
    <line x1="241.3261" x2="316.3376" y1="198.6845" y2="498.6429"/>
    <line x1="203.8456" x2="231.5304" y1="488.6032" y2="204.0697"/>
    <line x1="231.5304" x2="239.8188" y1="204.0697" y2="60.2099"/>
    <line x1="365.4611" x2="284.8153" y1="74.081" y2="190.3885"/>
    <line x1="284.8153" x2="58.4477" y1="190.3885" y2="307.1169"/>
    <polygon points="56.6929,56.6929 56.6929,501.7592 501.7592,501.7592 501.7592,56.6929"/>
    <polygon points="487.684,509.6591 486.766,509.9651 486.1541,510.8831 485.8481,512.413 485.8481,513.3309 486.1541,514.8609 486.766,515.7788 487.684,516.0848 488.296,516.0848 489.2139,515.7788 489.8259,514.8609 490.1319,513.3309 490.1319,512.413 489.8259,510.8831 489.2139,509.9651 488.296,509.6591"/>
    <polyline points="492.8857,510.8831 493.4977,510.5771 494.4156,509.6591 494.4156,516.0848"/>
    <line x1="501.1472" x2="501.1472" y1="516.0848" y2="509.6591"/>
    <polyline points="501.1472,509.6591 498.0874,513.9429 502.6772,513.9429"/>
  </g>
</svg>
