<?xml version="1.0" encoding="utf-8" ?>
<svg xmlns="http://www.w3.org/2000/svg" xmlns:cc="http://creativecommons.org/ns" xmlns:dc="http://purl.org/dc/elements/1.1/" xmlns:ev="http://www.w3.org/2001/xml-events" xmlns:inkscape="http://www.inkscape.org/namespaces/inkscape" xmlns:rdf="http://www.w3.org/1999/02/22-rdf-syntax-ns" xmlns:sodipodi="http://sodipodi.sourceforge.net/DTD/sodipodi-0.dtd" xmlns:xlink="http://www.w3.org/1999/xlink" baseProfile="tiny" height="21.0cm" version="1.2" viewBox="0 0 559.3700787401575 793.7007874015749" width="14.8cm">
  <metadata>
    <rdf:RDF>
      <cc:Work>
        <dc:format>image/svg+xml</dc:format>
        <dc:source>Vsketch with params {'__seed__': 0, 'line_count': 8, 'export_page_size': 'a5', 'export_margin': 1.5}</dc:source>
        <dc:date>2023-02-25T14:28:14.098369</dc:date>
      </cc:Work>
    </rdf:RDF>
  </metadata>
  <defs/>
  <g fill="none" id="layer1" inkscape:groupmode="layer" inkscape:label="1" stroke="#000000" style="display:inline">
    <polygon points="240.8008,152.3128 238.8777,148.2611 237.7788,144.9324 236.8152,140.1628 236.4942,136.3778 236.6325,131.1177 237.1767,127.0578 239.4322,118.7998 243.2593,110.6042 245.755,106.6221 248.6281,102.7654 251.8662,99.0694 255.4538,95.5677 262.1579,90.2501 266.5785,87.4188 271.2663,84.89 279.595,81.4113 288.4418,78.9319 297.6493,77.5217 305.1636,77.1943 310.8284,77.4238 316.4767,78.0612 322.0714,79.1034 327.5758,80.544 332.954,82.3729 338.1711,84.5769 344.8191,88.0702 349.5334,91.08 353.9822,94.3984 358.139,97.9993 363.1855,103.1908 366.5715,107.337 369.596,111.6635 372.2448,116.1357 375.1736,122.2637 377.3988,128.501 378.9151,134.7596 379.7279,140.9516 379.8538,146.9906 379.3198,152.7929 378.1634,158.2789 376.4317,163.3743 374.1808,168.0115 371.4747,172.1304 367.5607,176.4724 364.099,179.2506 359.4942,181.8057 354.7374,183.31 349.9997,183.7559 345.4511,183.1624 341.2562,181.5752 337.5709,179.0649 335.0858,176.4549 333.0838,173.3724 331.6227,169.8834 330.6304,165.062 330.5505,160.9329 331.1346,156.6523 332.3988,152.3065 334.3479,147.9831 336.9758,143.7696 340.2657,139.7522 343.1511,136.9182 347.5263,133.4422 351.1789,131.1035 356.5012,128.399 360.7988,126.7158 365.3273,125.3554 370.056,124.3388 374.9527,123.6843 379.9831,123.407 385.1122,123.5187 390.3036,124.0277 395.5205,124.9392 400.7256,126.2547 405.8819,127.9721 410.9523,130.086 415.9008,132.5876 420.6923,135.4645 425.2927,138.7012 429.6698,142.2792 436.3872,148.941 440.0262,153.3162 443.3417,157.9406 446.3123,162.7837 448.9196,167.8131 451.1485,172.9948 452.9869,178.2935 454.4261,183.6728 455.4611,189.096 456.0902,194.5258 456.315,199.925 456.1409,205.2567 455.5767,210.4847 454.6344,215.5739 453.3294,220.4903 451.6801,225.2016 448.9827,231.1119 446.6179,235.2301 443.0614,240.2539 439.1095,244.697 434.8391,248.517 431.4764,250.9533 426.8477,253.6113 422.1328,255.5827 417.4194,256.8647 412.795,257.4657 408.3452,257.4048 404.1526,256.7119 399.3919,255.0185 396.0547,253.0638 392.5772,249.9687 390.4168,247.0549 388.5661,242.9894 387.7193,238.6017 387.7918,234.9713 388.5403,231.3284 389.9616,227.7607 392.6618,223.5384 395.5288,220.4523 398.9838,217.7116 402.9795,215.3901 407.4593,213.5551 412.359,212.2662 417.6071,211.5746 421.7256,211.4733 427.3946,211.9215 431.7334,212.7082 437.5649,214.3693 441.9254,216.077 447.6511,218.966 451.8318,221.5839 455.8752,224.5776 459.7466,227.9338 463.4127,231.6359 466.8419,235.6642 470.0046,239.9962 472.8734,244.6066 475.4233,249.4678 477.6322,254.5498 479.4807,259.8208 480.9528,265.2473 482.0352,270.7942 482.7184,276.4257 482.9545,285.8993 482.0582,295.3333 480.9838,300.9034 479.517,306.3614 477.6701,311.6719 475.4583,316.8011 472.9003,321.7167 470.0175,326.3882 466.8341,330.7872 463.3769,334.888 459.6751,338.6673 455.7596,342.1046 451.6636,345.1826 447.4212,347.887 443.0681,350.2069 437.1548,352.6894 432.6858,354.0888 426.7526,355.3391 422.3695,355.8212 416.683,355.8728 412.5817,355.4846 407.3946,354.4286 402.5967,352.801 398.2558,350.6579 394.4318,348.0634 391.1764,345.0883 388.5316,341.8098 386.1326,337.4094 384.9637,333.7512 384.4711,330.065 384.652,326.4384 385.8028,322.1205 387.9325,318.1939 390.2909,315.438 393.1781,313.1031 396.5359,311.2549 401.2936,309.7159 405.4584,309.1599 409.8563,309.2448 414.4036,309.9972 419.014,311.4328 423.5998,313.5568 428.0734,316.3629 431.3031,318.9053 435.3746,322.8577 439.1044,327.4199 442.4172,332.5467 444.5862,336.7297 447.007,342.7083 448.4388,347.4558 449.519,352.3947 450.2302,357.492 450.5585,362.7132 450.4932,368.0228 450.027,373.3841 449.1559,378.7601 447.8797,384.1136 446.2014,389.4075 444.1276,394.6052 441.6684,399.6706 438.8371,404.569 435.6502,409.2671 429.6031,416.5666 422.7322,423.0883 418.2666,426.579 413.5806,429.7263 408.7067,432.5118 403.6788,434.9203 398.5322,436.9397 393.3033,438.5615 388.0287,439.7804 382.7459,440.5947 377.4919,441.0062 372.3035,441.0202 367.2171,440.6454 362.2678,439.8938 357.4894,438.7807 352.9143,437.3247 348.5729,435.547 343.1965,432.7185 338.3457,429.4256 334.0723,425.7394 331.2719,422.7628 328.1049,418.5765 325.6073,414.2192 323.7928,409.7777 322.6643,405.3397 322.2134,400.9926 322.4209,396.8219 323.5596,391.9821 325.124,388.5033 327.2138,385.4511 329.7689,382.8891 333.5134,380.4602 337.7324,378.9726 341.3434,378.5046 345.0721,378.7025 348.8314,379.5769 353.4401,381.6193 356.9491,383.9973 360.2086,387.0102 363.1382,390.6228 365.6628,394.7899 367.7132,399.4573 369.2278,404.5624 369.9797,408.6366 370.4337,414.336 370.2277,420.2669 369.3349,426.3456 368.2047,430.9496 366.6764,435.551 364.7509,440.1125 362.4325,444.5974 359.729,448.9691 356.6515,453.1922 353.2146,457.2325 349.4358,461.057 345.3358,464.6348 340.938,467.937 336.2685,470.937 331.3557,473.6107 326.2304,475.9368 320.9248,477.897 315.4731,479.4762 309.9106,480.6623 304.2734,481.4469 294.813,481.8499 289.1583,481.5481 283.565,480.843 278.0698,479.7423 272.708,478.257 267.5142,476.4014 262.5213,474.193 257.7603,471.6523 253.2603,468.8027 249.0479,465.6699 245.1475,462.2824 241.5803,458.6707 238.3648,454.867 235.5162,450.9053 233.0466,446.8206 230.9648,442.6493 228.8006,437.0163 227.6377,432.7862 226.6952,427.2093 226.4355,423.1213 226.6645,417.8643 227.5185,412.9024 228.9528,408.311 230.9135,404.1596 233.3386,400.5101 236.1585,397.4163 240.1233,394.3974 243.5481,392.7017 247.1061,391.6696 250.7102,391.3118 255.1468,391.8116 259.3492,393.3393 262.4327,395.2682 265.8091,398.5009 268.039,401.6854 270.1297,406.3183 271.1762,410.4648 271.6151,414.9224 271.4094,419.6115 270.5327,424.4485 268.969,429.347 266.7134,434.2193 264.5709,437.8036 261.1259,442.4199 257.032,446.7732 252.3247,450.783 248.4187,453.5194 244.2156,455.9903 239.7405,458.1687 235.0212,460.0294 230.0875,461.5506 224.9712,462.7128 219.7061,463.4999 214.3268,463.8991 208.8695,463.9006 203.3708,463.4983 197.8679,462.6894 192.3981,461.4748 186.9983,459.8587 181.7051,457.8488 176.554,455.4563 171.5793,452.6955 166.8141,449.584 159.4207,443.676 155.36,439.7375 151.6118,435.537 148.1985,431.1043 145.1395,426.4712 142.451,421.6713 140.1463,416.7393 138.235,411.7113 136.7236,406.6239 135.615,401.5143 134.9085,396.4197 134.6001,391.3769 134.6821,386.4226 135.1437,381.5922 135.9707,376.92 137.1455,372.439 139.2175,366.815 141.12,362.8971 144.0706,358.1226 146.556,354.9081 150.1731,351.1475 154.0636,348.0212 158.1438,345.5561 162.3275,343.7688 166.5273,342.6647 170.6554,342.2381 175.584,342.6315 179.2405,343.6528 182.5577,345.2594 185.4631,347.402 188.4167,350.7445 190.5145,354.7026 191.6676,359.1301 191.8114,363.8687 191.1725,367.772 189.4187,372.6482 187.2572,376.4402 183.6349,380.9029 180.0361,384.1502 175.8572,387.0259 171.1482,389.4575 165.9675,391.3796 160.3815,392.7345 154.4634,393.4733 148.2917,393.5566 141.9494,392.9552 137.1325,392.0432 130.7,390.2054 125.9162,388.361 121.2085,386.1215 116.6131,383.4949 110.722,379.4101 106.5249,375.929 102.5533,372.1105 98.8376,367.9762 94.33,362.0149 91.317,357.2426 88.6443,352.2451 86.3311,347.0543 84.3938,341.7036 82.8453,336.2281 81.6953,330.6636 80.9503,325.0469 80.6144,315.6709 80.9534,310.097 81.6905,304.6067 83.7755,295.7393 85.517,290.6447 87.6045,285.7593 91.793,278.1636 94.6909,273.979 97.8433,270.1041 101.2197,266.5602 104.7879,263.3657 108.5139,260.536 112.3627,258.083 116.298,256.0156 121.6161,253.8671 125.6099,252.7134 130.8716,251.7797 134.7232,251.524 139.6648,251.7549 143.1817,252.3379 147.5573,253.6268 150.5648,254.9488 154.1575,257.1379 157.2204,259.7536 159.7044,262.7231 161.5698,265.9683 162.7872,269.4068 163.3376,272.9527 163.2131,276.519 162.114,280.8719 159.9959,284.9515 156.915,288.5961 152.9521,291.6549 148.2106,293.9917 143.9392,295.261 138.1193,296.0138 133.1735,295.8995 126.7649,294.8129 121.5618,293.1678 116.386,290.827 111.325,287.7966 106.4654,284.0938 101.8904,279.7462 97.6796,274.792 93.9069,269.2789 90.6399,263.2634 88.5578,258.4607 86.8162,253.4416 85.4343,248.2379 84.1788,241.0707 83.6936,235.5692 83.6093,229.9996 83.931,224.399 84.9938,216.9476 86.263,211.4193 87.9299,205.9835 89.9845,200.676 92.4135,195.5317 95.2005,190.584 98.3257,185.8647 102.9798,179.9785 109.4937,173.3626 113.722,169.8305 118.1517,166.6506 125.8909,162.1769 130.6907,160.0078 135.5634,158.2349 143.7458,156.1701 148.6315,155.4642 153.4543,155.1524 158.1781,155.226 162.7675,155.673 171.41,157.6227 175.4003,159.0857 180.3133,161.4894 183.6595,163.597 187.6276,166.7572 190.209,169.3484 193.0957,173.034 194.8295,175.9254 196.552,179.8814 197.5944,183.8724 197.9595,187.8107 197.6611,191.6097 196.7239,195.1853 195.1829,198.4571 193.083,201.3499 190.478,203.7945 187.4302,205.7292 184.009,207.1005 181.2435,207.7323 175.3462,207.9128 171.2578,207.1993 168.1709,206.2175 162.1044,203.1062 156.4244,198.5028 151.4114,192.5006 147.3238,185.2438 144.7889,178.3741 143.1652,170.8959 142.5413,162.9561 142.9819,154.7139 144.526,146.3367 147.1859,137.996 150.947,129.863 155.7682,122.105 160.3443,116.2755 165.5113,110.8635 169.7419,107.1204 174.2484,103.6781 179.0022,100.5605 183.973,97.789 189.1281,95.3819 194.4335,93.3545 201.6802,91.2621 207.1977,90.1614 212.7446,89.4669 218.2838,89.1794 225.5931,89.4232 230.9706,90.0674 237.9336,91.5205 242.9562,93.0368 249.3257,95.592 255.2559,98.7089 260.6826,102.3271 265.5498,106.3789 269.8103,110.7898 273.4265,115.4803 276.3714,120.3666 278.6283,125.3625 280.1918,130.3802 281.0675,135.332 281.2208,141.2979 280.3814,146.8643 278.6294,151.88 276.0679,156.2081 272.8198,159.7298 269.0253,162.347 264.8382,163.985 261.3154,164.5559 257.7326,164.4542 254.1774,163.6776 251.5815,162.6569 248.2832,160.7264 245.2473,158.1707 242.5529,155.0275"/>
    <polygon points="159.8739,247.1524 162.0339,250.3654 163.5499,253.7878 164.4012,257.3346 164.5779,260.9187 164.0813,264.4524 162.5332,268.6667 160.0003,272.5025 156.5554,275.805 152.2944,278.4328 147.3346,280.2612 142.954,281.0772 137.0872,281.2175 132.1805,280.5867 125.9206,278.8363 120.9179,276.6563 116.0151,273.7873 111.2987,270.2445 106.8527,266.054 102.7572,261.252 99.0873,255.8848 95.9116,250.0075 93.2913,243.6835 91.7226,238.6895 90.5151,233.5158 89.6847,228.1962 89.1853,220.937 89.2778,215.4149 89.7762,209.867 90.6816,204.3307 92.5175,197.0313 94.3576,191.6659 96.5835,186.4341 99.1817,181.3704 102.1351,176.5082 105.4239,171.879 109.0254,167.5121 114.2692,162.1447 121.439,156.246 126.0133,153.1751 130.7512,150.4758 138.9156,146.8355 143.9158,145.1799 148.9471,143.9261 157.3006,142.7279 162.2333,142.5366 167.0623,142.7307 171.7524,143.2976 176.2701,144.2219 184.6613,147.0643 188.4768,148.9363 193.1117,151.8405 196.2193,154.2863 199.8353,157.8439 202.1317,160.6908 204.6173,164.6579 206.0394,167.7147 207.339,171.8291 207.9585,175.9072 207.9099,179.862 207.2161,183.6091 205.9102,187.0671 204.0357,190.16 201.6448,192.8174 198.7986,194.9763 195.5653,196.5818 192.0195,197.588 189.2031,197.9272 183.3192,197.4903 179.3279,196.3534 176.3605,195.0543 170.6524,191.3259 165.4847,186.1541 161.1266,179.6607 157.8199,172.0164 156.017,164.9194 155.1838,157.3124 155.3933,149.3509 156.6931,141.1999 159.1043,133.03 162.6215,125.013 167.2121,117.3177 172.8178,110.1062 177.9782,104.7869 183.6827,99.9446 188.2813,96.6643 193.1229,93.7119 198.1766,91.1083 203.4098,88.8715 208.7883,87.0165 214.2766,85.5548 221.7023,84.2314 227.3046,83.7133 232.8937,83.6025 238.4326,83.8956 245.6765,84.9021 250.9572,86.1048 257.7301,88.2778 262.5667,90.3108 268.6342,93.5178 274.2061,97.2375 279.2249,101.4032 283.6419,105.9415 287.418,110.7736 290.5241,115.8164 292.9421,120.9838 294.6644,126.1882 295.6949,131.3418 296.0481,136.358 295.577,142.3073 294.1603,147.7555 291.8937,152.5605 288.8938,156.5971 285.2954,159.76 281.2481,161.9663 276.9127,163.1576 273.3496,163.3571 269.797,162.8815 266.3424,161.7375 263.8674,160.4511 260.7891,158.1865 258.0369,155.3274 255.6858,151.9198 254.2271,149.0368 252.738,144.8063 251.9931,141.3809 251.5333,136.5367 251.6098,132.7389 252.2971,127.5221 253.2627,123.5413 256.3691,115.5644 261.0319,107.8136 263.9302,104.1142 267.1906,100.579 270.7973,97.2417 274.7313,94.1342 281.9545,89.5465 286.6468,87.1928 291.5733,85.1678 300.22,82.5788 309.2774,81.0377 318.582,80.5977 326.0893,81.0576 331.6991,81.8779 337.2498,83.1022 342.705,84.7235 348.0286,86.7316 353.1861,89.1127 358.1443,91.85 364.3907,96.019 368.7646,99.5051 372.8422,103.2703 376.5997,107.286 381.076,112.9765 384.01,117.454 386.5657,122.0729 388.7325,126.7975 391.0047,133.1981 392.5658,139.6338 393.4196,146.0166 393.5807,152.2597 393.0746,158.2787 391.937,163.9934 390.2135,169.3285 387.9587,174.215 385.2354,178.5915 382.1136,182.405 377.7672,186.314 374.0341,188.7152 369.1874,190.7749 364.2994,191.7738 359.5411,191.722 355.0794,190.6563 351.0734,188.6393 347.6707,185.7576 345.472,182.9021 343.8032,179.6272 342.7148,176.0046 342.232,171.1059 342.5841,166.9911 343.6124,162.795 345.3239,158.6051 347.7142,154.5091 350.7683,150.5934 354.46,146.9419 357.6259,144.425 362.3405,141.4254 366.2175,139.4813 371.7933,137.3479 376.2433,136.1232 380.8892,135.2436 385.6983,134.7269 390.6365,134.5878 395.6684,134.8379 400.7577,135.485 405.8675,136.534 410.9605,137.9858 415.9996,139.8381 420.9481,142.0851 425.7698,144.7174 430.4297,147.7225 434.8942,151.0845 439.131,154.7844 443.1102,158.8004 449.0944,166.1278 452.2562,170.8594 455.0701,175.8051 457.5182,180.9322 459.5856,186.2066 461.2606,191.5928 462.535,197.0546 463.4041,202.5549 463.8666,208.0566 463.9246,213.5224 463.5838,218.9155 462.8534,224.1998 461.7458,229.3402 460.2767,234.303 458.4649,239.0561 456.3322,243.5691 453.0318,249.1652 450.2495,253.0136 446.1873,257.6381 441.7926,261.6438 437.1463,264.9965 433.5474,267.0679 428.6662,269.2275 423.771,270.6953 418.9495,271.4776 414.2876,271.5919 409.8685,271.0663 405.7713,269.9388 401.2137,267.7572 398.0991,265.4643 394.9641,262.0227 393.1202,258.899 391.7046,254.6623 391.3211,250.2102 391.7727,246.6072 392.8979,243.0625 394.6843,239.663 397.811,235.746 400.9849,232.9765 404.7075,230.612 408.9239,228.7208 413.571,227.3641 418.5786,226.5944 423.8703,226.4552 427.9767,226.785 433.5679,227.8233 437.8007,229.0592 443.4266,231.3208 447.5847,233.4749 452.9771,236.9466 456.8612,239.9872 460.5695,243.3872 464.0689,247.1296 467.3279,251.1946 470.3173,255.5593 473.0098,260.1981 475.381,265.0832 477.4088,270.1843 479.0744,275.4694 480.3618,280.9047 481.2586,286.4553 481.7553,292.085 481.8461,297.7571 481.0906,307.2034 479.2131,316.4921 477.5623,321.9194 475.5331,327.1941 473.1412,332.2825 470.4054,337.1524 467.3476,341.7737 463.9922,346.1182 460.3665,350.1604 456.4996,353.8774 452.423,357.249 448.1697,360.2582 443.7743,362.8912 439.2725,365.1373 434.7007,366.9895 428.5603,368.8403 423.9696,369.7649 417.9382,370.3882 413.5287,370.4094 407.868,369.8664 403.8297,369.0516 398.7814,367.4591 394.1799,365.339 390.0868,362.7539 386.555,359.7738 383.6283,356.4748 381.3408,352.9378 379.4149,348.3107 378.6347,344.5504 378.5302,340.8329 379.0891,337.245 380.685,333.0711 383.2135,329.3887 385.847,326.8943 388.9625,324.874 392.4951,323.3869 397.3875,322.3537 401.5877,322.2361 405.9526,322.7802 410.3963,324.0038 414.8314,325.9135 419.1701,328.5051 423.3259,331.7635 426.2721,334.6296 429.9082,338.986 433.1407,343.9131 435.8994,349.358 437.6193,353.7448 439.4019,359.9437 440.3296,364.8149 440.8876,369.8396 441.0621,374.9833 440.8429,380.2103 440.2229,385.4839 439.1988,390.7671 437.7706,396.0226 435.9418,401.2134 433.7193,406.3029 431.1136,411.2553 428.1384,416.0359 424.8106,420.6115 421.15,424.9507 414.3731,431.5782 406.8581,437.3459 402.052,440.3507 397.0627,442.9909 391.9243,445.2517 386.6723,447.1215 381.3428,448.5919 375.973,449.6582 370.5999,450.3191 365.2609,450.5767 359.9926,450.4368 354.8313,449.9084 349.8119,449.0039 344.9682,447.7391 340.3324,446.1327 335.9346,444.2064 331.8028,441.9847 326.7514,438.6097 322.2714,434.8278 318.4067,430.715 315.9329,427.462 313.2207,422.9676 311.1923,418.3731 309.8521,413.7663 309.1936,409.2346 309.1996,404.8642 309.8418,400.7381 311.4802,396.0438 313.3997,392.7476 315.7971,389.9305 318.606,387.6497 322.5838,385.6255 326.9353,384.587 330.5754,384.4991 334.263,385.0856 337.9103,386.3481 342.2803,388.8611 345.5215,391.5929 348.4482,394.93 350.9841,398.8291 353.0593,403.2372 354.6106,408.0934 355.5833,413.3288 355.9052,417.4593 355.761,423.1749 354.9361,429.0518 353.4128,435.0039 351.8076,439.4645 349.8067,443.8809 347.4149,448.2162 344.6404,452.4342 341.4947,456.4994 337.9927,460.3777 334.1522,464.0365 329.9944,467.4451 325.5428,470.5748 320.824,473.3992 315.8665,475.8946 310.7012,478.0401 305.3607,479.8177 299.8793,481.2126 294.2924,482.2133 288.6364,482.8115 282.9481,483.0026 273.4974,482.4145 267.9052,481.5232 262.4163,480.2374 257.0661,478.5683 251.889,476.5307 246.9177,474.1423 242.1829,471.4241 237.7136,468.3997 233.5361,465.0952 229.6743,461.5394 226.1493,457.7627 222.9792,453.7979 220.1788,449.6789 217.76,445.4411 215.7309,441.1208 214.0965,436.7547 212.533,430.9263 211.8186,426.5978 211.4643,420.9529 211.6332,416.8602 212.4105,411.656 213.7785,406.8105 215.6849,402.3942 218.0688,398.4704 220.862,395.0944 223.9899,392.3123 228.2485,389.7244 231.8319,388.396 235.4783,387.7414 239.1,387.7624 243.46,388.7232 247.4798,390.6818 250.3447,392.9224 253.3647,396.4904 255.2495,399.8905 256.8445,404.7165 257.4519,408.9497 257.4224,413.4287 256.7277,418.0707 255.3502,422.7895 253.283,427.4977 250.5304,432.1076 248.025,435.4483 244.1163,439.6792 239.5898,443.5807 234.4892,447.0765 230.3186,449.3896 225.8802,451.4077 221.2019,453.1063 216.3139,454.4636 211.2483,455.4607 206.0386,456.0817 200.72,456.3142 195.3285,456.1489 189.9009,455.5799 184.4744,454.6051 179.0862,453.2254 173.7733,451.4457 168.572,449.274 163.5179,446.7219 158.6451,443.804 153.9863,440.5383 149.5723,436.9458 142.837,430.2974 139.2103,425.956 135.9217,421.3866 132.9904,416.6214 130.4324,411.694 128.2604,406.6393 126.4838,401.4935 125.1086,396.2933 124.1373,391.0758 123.5688,385.8782 123.3988,380.7376 123.6191,375.6903 124.2186,370.7717 125.1826,366.016 126.4933,361.4559 128.1301,357.1222 130.7787,351.7456 133.0803,348.048 136.5138,343.6081 139.3216,340.671 143.312,337.3091 147.5079,334.6065 151.8234,332.5815 156.1711,331.2413 160.4632,330.5822 164.6134,330.5895 169.4738,331.4959 173.0035,332.8938 176.1346,334.8383 178.8001,337.2729 181.3882,340.9058 183.0607,345.0615 183.7448,349.5853 183.3924,354.313 182.349,358.1281 180.0951,362.7943 177.549,366.3396 173.4801,370.3992 169.5616,373.2525 165.1051,375.6756 160.1676,377.6017 154.8144,378.9717 149.1175,379.7353 143.1545,379.8514 137.0079,379.2892 130.7632,378.0281 126.068,376.6176 119.8628,374.1175 115.2981,371.7831 110.8502,369.0639 106.5546,365.9713 101.1227,361.2931 97.3124,357.3924 93.7618,353.1796 90.4986,348.6796 86.6388,342.2797 84.1412,337.2186 82.0055,331.9692 80.2476,326.565 78.8801,321.0411 77.9124,315.4337 77.3505,309.7795 77.1966,304.1157 77.8426,294.756 78.7624,289.248 80.0694,283.8649 83.0698,275.264 85.3343,270.3793 87.9211,265.7389 92.8806,258.6226 96.2,254.7639 99.7402,251.2397 103.4685,248.0681 107.3511,245.2641 111.3525,242.8394 115.4365,240.8022 119.5664,239.1574 125.08,237.5766 129.1725,236.8466 134.503,236.4681 138.3601,236.6164 143.2506,237.3626 146.6873,238.31 150.9041,240.0492 153.757,241.6783 157.1012,244.231"/>
    <polygon points="165.0704,252.5881 162.0283,256.034 158.1572,258.825 153.572,260.8342 148.406,261.9546 143.9545,262.1529 138.1253,261.4753 133.3541,260.1679 127.3987,257.5632 122.7481,254.7082 118.2923,251.1848 114.1149,247.0201 110.2953,242.2516 106.9081,236.9264 104.0209,231.1007 101.694,224.8386 99.9793,218.2114 99.1209,213.0477 98.6452,207.7564 98.5633,202.3729 99.079,195.1149 99.9391,189.6594 101.2047,184.2349 102.8718,178.8785 105.7057,171.9055 108.2746,166.8485 111.2071,161.9774 114.4846,157.3246 118.086,152.9207 121.9871,148.7942 126.1612,144.9711 132.1011,140.3857 140.022,135.5422 144.9792,133.1379 150.0466,131.1242 158.6382,128.6556 163.8202,127.7121 168.977,127.1707 177.416,127.1467 182.3273,127.6438 187.0823,128.508 191.6479,129.7222 195.9929,131.2662 203.9069,135.2488 207.4248,137.6336 211.6103,141.1545 214.3473,144.0091 217.433,148.0353 219.3109,151.174 221.2202,155.4485 222.203,158.6735 222.9173,162.9287 222.9632,167.0533 222.3647,170.9629 221.1561,174.5769 219.3817,177.8196 217.095,180.6215 214.3576,182.9203 211.2386,184.662 207.8132,185.8019 204.162,186.3048 201.3257,186.2488 195.5599,184.9973 191.7657,183.3159 189.008,181.6165 183.8743,177.13 179.4767,171.2893 176.0647,164.2526 173.854,156.2225 173.0564,148.9436 173.29,141.2947 174.6055,133.4398 177.027,125.549 180.5519,117.7942 185.1505,110.3447 190.7675,103.3632 197.3223,97.002 203.1728,92.4528 209.4956,88.4515 214.506,85.8431 219.7114,83.5932 225.0783,81.7183 230.5718,80.2316 236.1561,79.1432 241.7945,78.4595 249.3321,78.1824 254.9519,78.4492 260.5021,79.1173 265.9463,80.1783 272.9796,82.1832 278.0415,84.1092 284.4461,87.2036 288.9527,89.8899 294.5148,93.9102 299.5148,98.3691 303.905,103.1927 307.6474,108.3016 310.7142,113.6122 313.0883,119.0382 314.7636,124.4918 315.7449,129.8853 316.0481,135.1322 315.6997,140.1487 314.4052,145.9746 312.2441,151.1725 309.3308,155.6153 305.7983,159.1952 301.7947,161.8265 297.4797,163.4481 293.0207,164.0244 289.4645,163.7261 286.0128,162.7607 282.751,161.147 280.4791,159.5287 277.7459,156.8576 275.4184,153.6434 273.5645,149.9417 272.5212,146.8838 271.6353,142.4872 271.3744,138.9915 271.5933,134.1304 272.1975,130.3803 273.6042,125.3098 275.1145,121.5022 279.3007,114.0352 284.9969,107.0088 288.3818,103.7488 292.1025,100.7018 296.1386,97.8989 300.4668,95.3691 308.2582,91.8313 313.2324,90.1536 318.3927,88.8339 327.3156,87.4735 336.4994,87.2079 345.7746,88.0672 353.1449,89.5674 358.5859,91.1605 363.9123,93.1454 369.0886,95.5101 374.081,98.2395 378.857,101.3153 383.3859,104.7159 388.9914,109.7137 392.8374,113.7746 396.3513,118.0707 399.5135,122.5703 403.1542,128.8284 405.4365,133.6707 407.3245,138.6003 408.8127,143.5804 410.172,150.235 410.8222,156.8253 410.7794,163.2649 410.0701,169.4696 408.7312,175.3596 406.8093,180.8603 404.3601,185.9036 401.4472,190.4288 398.1413,194.3837 394.5191,197.7256 389.671,200.9917 385.64,202.8499 380.5538,204.2151 375.5745,204.524 370.8696,203.8105 366.5996,202.1342 362.9134,199.5793 359.9448,196.252 358.1649,193.1183 356.9682,189.6431 356.3945,185.9043 356.5981,180.9861 357.5195,176.9603 359.1218,172.9481 361.3998,169.0372 364.3369,165.3137 367.9062,161.8612 372.0702,158.759 375.5555,156.7072 380.6417,154.3929 384.7516,153.0073 390.57,151.6707 395.1472,151.0772 399.8703,150.8527 404.7045,151.0104 409.614,151.5599 414.5621,152.5078 419.5118,153.857 424.4258,155.6069 429.2672,157.7534 433.9995,160.289 438.5871,163.2028 442.9956,166.4806 447.1919,170.105 451.145,174.0556 454.8257,178.3091 458.2072,182.8398 463.1134,190.9288 465.5859,196.0543 467.6842,201.3435 469.3949,206.7614 470.7081,212.2722 471.6172,217.8391 472.1191,223.4251 472.2142,228.9929 471.9065,234.5054 471.2032,239.926 470.1152,245.2192 468.6565,250.3505 466.8442,255.2867 464.6988,259.9968 462.2431,264.4514 459.503,268.6237 455.4559,273.706 452.1651,277.1297 447.4989,281.1439 442.5894,284.499 437.5218,287.1724 433.6696,288.7228 428.5354,290.1821 423.4835,290.9543 418.6,291.0579 413.9676,290.5223 409.6647,289.3867 405.7642,287.7001 401.5546,284.9054 398.7895,282.2013 396.164,278.3569 394.7727,275.007 393.9606,270.6145 394.2004,266.1523 395.149,262.6473 396.7566,259.2937 398.9987,256.1758 402.6402,252.7321 406.1686,250.4313 410.184,248.6079 414.6226,247.322 419.4133,246.6252 424.4793,246.5599 429.7388,247.1585 433.7594,248.0566 439.1516,249.863 443.1713,251.6759 448.4277,254.6984 452.2455,257.4103 457.1023,261.5987 460.5254,265.1502 463.7244,269.0332 466.6689,273.2263 469.3305,277.7053 471.6833,282.4436 473.7041,287.412 475.3722,292.5795 476.6704,297.9131 477.5842,303.3786 478.1027,308.9402 478.2182,314.5616 477.9266,320.2057 477.2271,325.8351 475.1643,335.0844 472.0123,344.0214 469.6223,349.1661 466.8787,354.1071 463.8019,358.8131 460.415,363.2549 456.7438,367.4056 452.8165,371.2409 448.6634,374.7392 444.3169,377.8818 439.8107,380.6532 435.18,383.0412 430.4609,385.0368 425.6903,386.6346 420.9053,387.8324 414.5671,388.8107 409.8923,389.0874 403.8329,388.8651 399.4633,388.2725 393.9333,386.947 390.0477,385.578 385.2701,383.2985 381.0086,380.5586 377.315,377.429 374.2323,373.9864 371.7933,370.3122 370.0203,366.4912 368.7571,361.6411 368.5078,357.8088 368.9217,354.113 369.9745,350.6378 372.1358,346.7266 375.1521,343.4319 378.1072,341.3283 381.4735,339.7613 385.1787,338.7803 390.1673,338.438 394.343,338.9062 398.5897,340.0525 402.8199,341.8825 406.946,344.3909 410.8818,347.5612 414.5436,351.3662 417.0623,354.6144 420.0567,359.4344 422.5721,364.7635 424.5461,370.5393 425.6387,375.1228 426.5413,381.5095 426.7821,386.4624 426.6353,391.5159 426.0922,396.6338 425.1477,401.7794 423.7998,406.9154 422.0504,412.0046 419.9047,417.0103 417.3712,421.896 414.462,426.6267 411.1925,431.1682 407.5809,435.4882 403.6486,439.5562 399.4198,443.3437 391.7864,448.9635 383.5419,453.6292 378.3644,455.9359 373.0562,457.8561 367.6532,459.3797 362.192,460.5003 356.7098,461.2147 351.2438,461.5233 345.8311,461.43 340.5081,460.9421 335.3106,460.0703 330.273,458.8287 325.4284,457.2345 320.8079,455.3079 316.4407,453.0719 312.3538,450.5523 308.5714,447.7771 304.0389,443.732 300.1289,439.3634 296.8742,434.7528 294.8771,431.1871 292.8169,426.359 291.4476,421.5269 290.7616,416.7784 290.7402,412.1992 291.3544,407.8722 292.5646,403.8756 294.8404,399.455 297.1999,396.458 299.9661,394.002 303.0651,392.1343 307.2859,390.6834 311.7395,390.2606 315.3565,390.6802 318.9265,391.7742 322.3626,393.5321 326.3403,396.6288 329.1698,399.785 331.6036,403.497 333.5722,407.7111 335.0136,412.3651 335.874,417.3899 336.1086,422.7097 335.8525,426.8449 334.9143,432.4848 333.2795,438.1897 330.9427,443.8718 328.7322,448.0656 326.1362,452.1606 323.1644,456.1209 319.8298,459.9116 316.149,463.4994 312.1413,466.8526 307.829,469.9414 303.2372,472.7381 298.3934,475.2178 293.3274,477.358 288.0708,479.1392 282.6572,480.5449 277.1214,481.562 271.4992,482.1805 265.8274,482.3938 260.1431,482.1991 254.4836,481.5966 245.2067,479.6989 239.793,478.0381 234.5364,476.0008 229.4707,473.6034 224.6275,470.8651 220.0369,467.8081 215.7265,464.4574 211.7216,460.8404 208.0447,456.9867 204.7154,452.928 201.7503,448.6975 199.1628,444.3301 196.963,439.8615 195.1575,435.3283 193.7494,430.7676 192.7385,426.2165 192.0014,420.2272 191.8963,415.8414 192.3311,410.2022 193.068,406.1728 194.562,401.1274 196.5911,396.5195 199.0935,392.4115 202.0003,388.8577 205.2362,385.9033 208.7209,383.5836 213.2982,381.6135 217.0315,380.7967 220.7335,380.656 224.3171,381.1808 228.501,382.739 232.209,385.238 234.7343,387.8556 237.2283,391.8091 238.6215,395.4385 239.5294,400.4395 239.5417,404.716 238.8891,409.1474 237.5551,413.6475 235.5343,418.1287 232.832,422.5034 229.4647,426.6853 226.5187,429.6447 222.0592,433.2905 217.0337,436.5241 211.4963,439.276 207.0443,440.9861 202.3683,442.3669 197.4991,443.3979 192.4698,444.0617 187.3146,444.344 182.0692,444.234 176.77,443.724 171.454,442.81 166.1584,441.4912 160.9204,439.7706 155.7766,437.6545 150.7631,435.1527 145.9147,432.2782 141.265,429.0475 136.8457,425.4799 132.6867,421.5976 128.8157,417.4257 123.0712,409.9046 120.084,405.1007 117.4633,400.1182 115.2238,394.9914 113.3764,389.7559 111.929,384.4482 110.8859,379.1051 110.2478,373.7641 110.0121,368.4622 110.1725,363.2362 110.7195,358.1219 111.6402,353.1544 112.9184,348.3671 114.5348,343.7918 116.4675,339.4585 118.6915,335.3948 122.0625,330.4391 124.8563,327.0979 128.8744,323.179 132.0636,320.6612 136.483,317.8874 141.0142,315.7951 145.5696,314.3904 150.0615,313.6683 154.4036,313.613 158.5123,314.1978 163.1993,315.7718 166.5001,317.6473 169.3301,320.0087 171.6308,322.7905 173.6881,326.7483 174.766,331.0963 174.8138,335.6713 173.8069,340.304 172.2427,343.9367 169.3614,348.2438 166.3466,351.4002 161.7523,354.8541 157.4748,357.1343 152.7244,358.9136 147.567,360.1337 142.0752,360.7454 136.3274,360.7087 130.4063,359.9938 124.3978,358.5816 118.3894,356.4637 113.9362,354.4135 108.1393,351.0741 103.9439,348.1272 99.9178,344.8154 96.0944,341.155 91.3664,335.7664 88.1361,331.3733 85.2063,326.7075 82.6012,321.797 79.6696,314.9223 77.9007,309.5629 76.5163,304.0672 75.5276,298.471 74.9423,292.8106 74.7644,287.123 74.9948,281.4457 75.6307,275.8156 77.5731,266.6369 79.2504,261.3105 81.2939,256.1616 85.4621,248.062 88.3844,243.54 91.5918,239.3048 97.4935,232.948 101.3176,229.5888 105.3138,226.5916 109.4473,223.9698 113.6823,221.7334 117.9822,219.8891 122.31,218.4402 126.6286,217.3861 132.3085,216.5881 136.4628,216.4348 141.7941,216.8018 145.5931,217.4855 150.3321,218.905 153.6035,220.3215 157.5373,222.6306 160.1357,224.641 163.092,227.6342 165.4311,230.9131 167.123,234.3954 168.1479,237.9955 168.4973,241.6263 168.1735,245.2001 167.1899,248.6303"/>
    <polygon points="152.8094,322.5615 157.1371,322.2034 161.2766,322.5002 166.062,323.7434 169.4856,325.3841 172.4734,327.5423 174.9626,330.1569 177.2909,333.9615 178.6695,338.2237 179.0363,342.7842 178.3551,347.4759 177.0481,351.2088 174.4742,355.7064 171.687,359.0655 167.3448,362.8314 163.2368,365.4045 158.6221,367.5108 153.5623,369.0877 148.1266,370.081 142.3902,370.4453 136.4337,370.1452 130.3413,369.1555 124.1998,367.462 119.6144,365.7274 113.5987,362.8005 109.208,360.1534 104.9606,357.1305 100.8912,353.7458 95.7989,348.7001 92.27,344.5431 89.0218,340.0929 86.0805,335.3762 82.6765,328.7227 80.5381,323.4997 78.7737,318.114 77.3971,312.6004 76.4183,306.9946 75.8441,301.3333 75.6779,295.6537 75.9195,289.993 77.2169,280.7011 78.5186,275.2707 80.1979,269.9919 83.791,261.6212 86.3908,256.9064 89.2949,252.4577 94.7387,245.7048 98.3193,242.087 102.0966,238.8183 106.0372,235.9145 110.1058,233.3882 114.2666,231.2485 118.4828,229.5011 122.7174,228.1484 128.3278,226.9561 132.4613,226.5134 137.8052,226.5077 141.6426,226.9246 146.4691,228.0101 149.8313,229.195 153.9166,231.2241 156.6489,233.0483 159.8068,235.828 162.369,238.9358 164.2996,242.2915 165.5732,245.8114 166.175,249.409 166.1012,252.9966 165.3593,256.4871 163.521,260.5831 160.7268,264.2328 157.0598,267.287 152.6259,269.6112 147.5507,271.0892 143.1238,271.5976 137.2615,271.3283 132.4108,270.3568 126.2882,268.1739 121.4498,265.6503 116.7591,262.4463 112.3013,258.5831 108.1584,254.0927 104.4079,249.0167 101.1214,243.4066 98.3633,237.3221 96.1905,230.8307 94.974,225.7394 94.1304,220.4941 93.6731,215.1296 93.6813,207.8532 94.1588,202.351 95.0429,196.8514 96.3323,191.3918 98.6729,184.2381 100.8828,179.0142 103.4683,173.9504 106.4133,169.0803 109.6987,164.436 113.3024,160.0474 117.1997,155.9424 122.8053,150.9539 130.369,145.5696 135.1464,142.8254 140.061,140.4631 148.4595,137.4012 153.563,136.0985 158.6695,135.1987 167.0862,134.5861 172.0203,134.7394 176.8239,135.2698 181.4631,136.1625 185.9053,137.3997 194.0778,140.8205 197.7535,142.9541 202.1744,146.1745 205.1039,148.8312 208.4629,152.6323 210.5551,155.6325 212.7579,159.7633 213.9633,162.9119 214.9728,167.1069 215.3063,171.2182 214.9819,175.1601 214.0284,178.8496 212.4845,182.2081 210.3988,185.1627 207.8284,187.6468 204.8385,189.6019 201.501,190.978 197.8937,191.7344 195.0605,191.8763 189.2215,191.0301 185.3191,189.6175 182.4496,188.1146 177.0155,183.9971 172.2211,178.4774 168.3266,171.6958 165.5612,163.8395 164.2577,156.634 163.9573,148.9874 164.7216,141.0599 166.5868,133.0194 169.5621,125.0376 173.6299,117.2855 178.7461,109.9292 184.8412,103.1262 190.3601,98.1799 196.3885,93.7473 201.2047,90.7958 206.2405,88.1883 211.4635,85.9436 216.84,84.0773 222.3347,82.602 227.9117,81.5267 235.4116,80.7245 241.0364,80.5985 246.6196,80.8779 252.1246,81.5565 259.2806,83.0659 264.4645,84.6341 271.0693,87.2742 275.7524,89.6397 281.5813,93.2621 286.8802,97.3614 291.5962,101.867 295.6859,106.7024 299.1157,111.7861 301.8625,117.0333 303.9141,122.3568 305.2692,127.6687 305.9376,132.8816 305.9401,137.9103 305.0551,143.8122 303.2619,149.1483 300.6656,153.7835 297.3914,157.601 293.5811,160.5052 289.3898,162.4238 284.9818,163.3097 281.4135,163.2602 277.9028,162.538 274.5364,161.1558 272.1572,159.6999 269.2443,157.226 266.6983,154.1819 264.5906,150.6186 263.3365,147.6409 262.1462,143.3168 261.642,139.8478 261.5213,134.9833 261.8625,131.2001 262.912,126.0439 264.153,122.1402 267.8082,114.3994 273.0003,106.9928 276.1496,103.5045 279.6487,100.2054 283.4794,97.1278 287.6206,94.3023 295.1462,90.2296 299.9913,88.209 305.047,86.5326 313.8533,84.553 322.9962,83.6475 332.3087,83.8577 339.7657,84.8401 345.3046,86.0497 350.7564,87.6582 356.0851,89.6562 361.2558,92.0307 366.2346,94.7657 370.9897,97.8422 376.9302,102.4368 381.0501,106.2196 384.8552,110.2601 388.3235,114.5281 392.3919,120.517 395.0064,125.1882 397.2337,129.9741 399.0656,134.8383 400.8858,141.3819 401.9942,147.9108 402.4007,154.3376 402.1259,160.5767 401.2011,166.5458 399.6677,172.1672 397.5762,177.369 394.9861,182.0864 391.9641,186.2623 388.5839,189.8487 383.9754,193.445 380.0839,195.5799 375.1053,197.2965 370.1596,197.952 365.4164,197.5685 361.0399,196.1941 357.1844,193.9025 353.991,190.7905 351.9968,187.7886 350.5606,184.4053 349.7275,180.7156 349.5876,175.7952 350.2258,171.7149 351.5444,167.6008 353.544,163.5405 356.2142,159.6212 359.534,155.9281 363.4714,152.543 366.8052,150.2531 371.7175,147.5896 375.7207,145.9207 381.4318,144.1815 385.9564,143.2702 390.6523,142.7167 395.4857,142.5368 400.4216,142.7425 405.4238,143.343 410.4555,144.3436 415.4797,145.7464 420.459,147.5499 425.3567,149.7493 430.1363,152.336 434.7627,155.2982 439.2016,158.6211 443.4207,162.2863 447.3891,166.2727 451.0784,170.5565 456.537,178.2835 459.361,183.2241 461.8231,188.354 463.9075,193.6394 465.6019,199.0452 466.8971,204.5351 467.7875,210.0725 468.2708,215.6201 468.3483,221.1406 468.0249,226.5971 467.3088,231.9533 466.2115,237.1738 464.7481,242.2245 462.9364,247.0727 460.7974,251.6878 458.355,256.0411 454.6724,261.3933 451.6284,265.0382 447.2535,269.3681 442.5901,273.0575 437.7212,276.0779 433.9866,277.8932 428.9667,279.7071 423.981,280.8298 419.1166,281.2739 414.4581,281.0627 410.0865,280.2301 406.0779,278.8196 401.6836,276.3253 398.7366,273.8207 395.8493,270.1688 394.2277,266.9241 393.1111,262.599 393.0391,258.131 393.7409,254.5683 395.1106,251.1108 397.1298,247.8441 400.5222,244.1547 403.8815,241.6134 407.76,239.5143 412.098,237.9219 416.8285,236.8927 421.8776,236.4742 427.166,236.7044 431.2395,237.3198 436.7446,238.7457 440.8809,240.2738 446.3354,242.9223 450.333,245.3613 455.4701,249.2006 459.1327,252.5047 462.5948,256.1551 465.8246,260.1326 468.7921,264.415 471.4697,268.9776 473.8321,273.7929 475.8567,278.8315 477.5238,284.0616 478.8166,289.45 479.7218,294.9619 480.2292,300.5615 480.3319,306.2122 480.0269,311.8767 478.6143,321.2474 476.0934,330.3825 474.0681,335.6814 471.6758,340.8017 468.9348,345.7109 465.8659,350.3781 462.4932,354.7748 458.843,358.8747 454.9441,362.6541 450.8274,366.0923 446.5255,369.1713 442.0726,371.8765 437.5043,374.1965 432.8568,376.1231 428.167,377.6518 421.9124,379.0698 417.2683,379.6719 411.2081,379.8729 406.8079,379.5866 401.1988,378.65 397.2272,377.5554 392.3023,375.6147 387.86,373.1788 383.9571,370.3145 380.6418,367.0953 377.9524,363.6001 375.9172,359.9121 374.3187,355.162 373.8028,351.3564 373.9578,347.6407 374.7657,344.1006 376.6488,340.0481 379.428,336.551 382.2291,334.2465 385.4779,332.4484 389.1056,331.2113 394.0583,330.5219 398.2564,330.6976 402.5727,331.5449 406.9203,333.0754 411.2113,335.2899 415.3586,338.1779 419.277,341.7182 422.0161,344.7828 425.3395,349.3822 428.2204,354.5228 430.5926,360.1469 432.0023,364.643 433.3482,370.9512 433.9338,375.8752 434.1399,380.9266 433.9552,386.07 433.3719,391.2689 432.3856,396.4864 430.9954,401.6853 429.2041,406.8284 427.0176,411.879 424.4455,416.801 421.5007,421.5596 418.1993,426.121 414.5604,430.4534 410.6061,434.5266 403.3833,440.6652 395.4843,445.8947 390.4803,448.5569 385.319,450.8427 380.0355,452.7395 374.6657,454.2383 369.2467,455.3334 363.8156,456.0226 358.4095,456.307 353.0655,456.1916 347.8198,455.6845 342.7079,454.7973 337.7639,453.5449 333.0202,451.9453 328.5077,450.0195 324.255,447.7911 320.2882,445.2865 315.4846,441.5674 311.2793,437.4822 307.7109,433.1099 305.4701,429.6922 303.078,425.0196 301.375,420.2948 300.3594,415.6057 300.0187,411.0391 300.3295,406.6798 301.258,402.6085 303.2199,398.0399 305.3646,394.8857 307.9527,392.2427 310.9139,390.1634 315.0232,388.4215 319.4365,387.6891 323.0739,387.8553 326.7115,388.6977 330.2619,390.2116 334.4459,393.0233 337.4887,395.9744 340.1754,399.5076 342.4332,403.5741 344.1958,408.1163 345.4046,413.0688 346.0097,418.3593 346.0427,422.5022 345.5002,428.1938 344.2673,433.9989 342.3326,439.8302 340.4201,444.168 338.116,448.4341 335.4277,452.592 332.3657,456.6061 328.9441,460.4419 325.18,464.0665 321.0937,467.4485 316.7082,470.5588 312.0492,473.3703 307.1448,475.8587 302.0253,478.0022 296.7229,479.7822 291.2715,481.1829 285.7062,482.1921 280.063,482.8006 274.379,483.0028 268.6913,482.7966 259.3046,481.5507 253.7882,480.2715 248.4024,478.6059 243.1817,476.5677 238.1594,474.1739 233.3667,471.4446 228.8331,468.4027 224.5856,465.0739 220.6488,461.4861 217.0445,457.6695 213.7915,453.6562 210.9057,449.4798 208.3995,445.1756 206.2822,440.7794 204.5594,436.328 203.2335,431.8585 202.0804,425.9352 201.6697,421.5674 201.71,415.9116 202.164,411.8407 203.3024,406.7033 205.0051,401.9651 207.2149,397.6925 209.8667,393.9446 212.8886,390.7717 216.203,388.2146 220.6317,385.93 224.299,384.8547 227.9822,384.4561 231.5937,384.7297 235.876,385.9923 239.7493,388.2265 242.451,390.6615 245.2148,394.4315 246.8578,397.9548 248.1123,402.8804 248.4228,407.1455 248.081,411.6116 247.0642,416.1938 245.3608,420.8051 242.9703,425.3576 239.9029,429.7642 237.1705,432.922 232.9762,436.87 228.1886,440.4463 222.8566,443.5777 218.5347,445.5942 213.9664,447.2978 209.181,448.6659 204.2102,449.679 199.0874,450.3202 193.8471,450.5764 188.5252,450.4373 183.1583,449.8963 177.7837,448.9501 172.4384,447.5991 167.1595,445.8469 161.9837,443.701 156.9466,441.1717 152.0828,438.2732 147.4254,435.0225 143.0058,431.4399 138.8532,427.5482 132.5981,420.4461 129.283,415.8623 126.3212,411.0747 123.7294,406.1166 121.5214,401.0228 119.7073,395.8289 118.294,390.5717 117.2849,385.2882 116.6798,380.0156 116.4753,374.7911 116.6643,369.6512 117.2362,364.6315 118.1773,359.7667 119.4707,355.0898 121.0963,350.6322 123.0314,346.4233 126.0486,341.2445 128.6025,337.7166 132.3374,333.5269 135.3432,330.7928 139.5584,327.7175 143.9326,325.3142 148.3789,323.5952"/>
    <polygon points="119.6855,361.4264 115.1836,359.4012 107.8872,355.161 103.692,352.1137 99.676,348.7056 93.4698,342.2719 90.0881,337.9943 86.9972,333.4335 82.5592,325.2785 79.7079,318.3374 78.0045,312.9395 76.6893,307.4153 75.7724,301.8007 75.2603,296.1325 75.1563,290.4478 75.4601,284.7838 76.4923,277.3281 77.7268,271.8558 79.343,266.5252 81.3258,261.3705 84.5082,254.827 87.2709,250.2058 90.3286,245.8612 93.6538,241.8185 98.4524,236.9366 103.5985,232.6769 109.0118,229.0753 114.6078,226.1572 120.2999,223.9373 126.0,222.4192 131.6206,221.5958 137.0756,221.4486 143.5355,222.1706 148.3211,223.4239 153.7081,225.7517 157.4641,228.1492 161.3779,231.7024 164.3442,235.7351 166.3011,240.0877 167.2126,244.593 167.0693,249.0803 166.206,252.5427 164.6996,255.7996 162.5816,258.7693 159.8939,261.3746 156.6876,263.5444 153.0224,265.2145 148.9655,266.3285 145.7101,266.7703 141.1488,266.8032 137.6074,266.3943 132.7935,265.2541 129.1617,263.9467 124.3611,261.5989 120.8401,259.389 116.3201,255.8579 113.1071,252.7858 110.0836,249.367 107.2819,245.6199 104.7325,241.5656 102.4637,237.2283 100.5015,232.6346 98.8693,227.8133 96.9367,219.3574 96.2767,214.0859 96.0068,208.7086 96.4468,199.61 97.2516,194.1292 98.4622,188.6777 101.3694,179.7575 103.6337,174.5638 106.2729,169.5319 109.2707,164.6952 112.6078,160.0859 116.2622,155.7337 120.2089,151.6665 124.4205,147.9096 130.3967,143.4217 135.108,140.4717 139.9783,137.8958 144.9723,135.7065 151.7612,133.4038 156.9025,132.1455 162.0451,131.2905 167.1519,130.8361 173.8419,130.8425 178.7236,131.2936 184.9859,132.4636 190.8956,134.2449 196.3808,136.5863 201.3769,139.4284 205.8271,142.7041 209.6835,146.3395 212.9078,150.2555 215.4721,154.369 217.724,159.6573 218.7566,163.8982 219.0984,169.0689 218.6367,172.9971 217.1923,177.5125 214.8634,181.4507 211.7559,184.6772 207.9954,187.0761 204.612,188.3348 200.9805,188.9649 197.1841,188.9387 192.338,187.9584 188.4874,186.4105 184.7547,184.1915 181.2256,181.3202 177.9829,177.826 175.105,173.7484 172.6645,169.1365 171.1614,165.3615 169.6411,159.9586 168.8923,155.6681 168.4507,149.6908 168.5565,145.0596 169.0495,140.3405 169.9372,135.57 171.2239,130.7849 172.9104,126.0226 174.9938,121.32 177.4678,116.7139 180.323,112.2402 183.5461,107.9338 187.1209,103.8282 191.0283,99.9552 195.2459,96.3448 199.7488,93.0246 204.5096,90.02 209.4986,87.3533 218.234,83.7121 223.6723,82.0346 229.2152,80.752 234.8263,79.872 240.4685,79.3989 246.1045,79.3338 251.6972,79.6739 257.2099,80.4132 262.6065,81.5421 267.852,83.0478 272.9128,84.9142 277.7571,87.1222 282.3547,89.6496 286.678,92.4717 290.7017,95.5612 294.403,98.8887 297.7622,102.4225 300.7626,106.1294 304.1823,111.2814 306.9176,116.5945 308.9568,121.9816 310.0283,126.0176 310.8536,131.3228 311.0065,136.4626 310.516,141.3539 309.4212,145.918 307.7706,150.082 305.6218,153.7794 302.335,157.6565 299.3138,160.103 295.1771,162.2799 291.6814,163.2841 287.2206,163.5942 282.8182,162.8518 279.4523,161.5145 276.3166,159.5417 273.4919,156.9676 270.5128,152.9728 268.6549,149.2216 267.3297,145.045 266.5893,140.514 266.4761,135.7051 267.0228,130.7 268.2517,125.5835 269.6282,121.7255 272.0713,116.6245 274.3551,112.8788 277.9882,108.0605 281.1392,104.6246 284.6389,101.3789 288.4691,98.3558 292.6086,95.5857 297.0331,93.0972 301.7162,90.916 306.6288,89.0657 311.74,87.5668 317.0168,86.4368 322.4251,85.6902 327.9292,85.3381 333.4926,85.3883 339.0784,85.8449 344.6493,86.7088 350.1682,87.9774 359.1511,90.9724 364.3535,93.2804 369.3736,95.9539 374.1789,98.9746 378.7386,102.3213 383.0243,105.97 387.0097,109.8942 390.6714,114.0651 393.9886,118.4515 396.9437,123.0209 399.5219,127.7388 401.7121,132.5699 403.5063,137.4777 404.9,142.4253 405.8924,147.3754 406.486,152.291 406.6868,157.1354 406.5041,161.8726 405.6868,167.9619 404.2501,173.7198 402.2427,179.0732 400.3969,182.7824 397.5338,187.2723 394.2764,191.1936 390.701,194.5035 386.8891,197.1686 382.9254,199.1664 378.8969,200.4851 373.9037,201.178 370.049,200.9823 366.4102,200.1448 363.0681,198.6996 359.4225,196.1067 356.4927,192.7397 354.7427,189.5728 353.5752,186.0627 353.0302,182.2875 353.2697,177.3213 354.2198,173.255 355.8515,169.2006 358.1596,165.2456 361.128,161.4763 364.7298,157.9762 368.9281,154.8251 372.4404,152.7356 377.5644,150.3701 383.1349,148.5418 389.0827,147.3048 393.7459,146.7927 398.5451,146.6541 403.4452,146.9013 408.41,147.543 413.4027,148.5847 418.3861,150.0283 423.3232,151.872 428.177,154.1109 432.9112,156.7365 437.4906,159.7367 441.8811,163.0965 446.0504,166.7976 449.9677,170.8186 453.6046,175.1357 456.9351,179.722 461.7422,187.8849 465.5431,196.5685 467.3115,201.963 468.683,207.4521 469.6507,212.9991 470.2115,218.567 470.3655,224.1184 470.1167,229.6164 469.4722,235.0242 468.4426,240.3064 467.0419,245.4282 465.2871,250.3567 463.1984,255.0605 460.7988,259.5103 458.1138,263.6792 454.1388,268.759 450.9009,272.1821 446.3033,276.1971 441.4605,279.5545 436.4572,282.2316 432.6519,283.7853 427.5781,285.2496 422.5845,286.0272 417.757,286.1365 413.1785,285.6063 408.9276,284.4756 405.0773,282.7932 400.9281,280.0025 398.2099,277.3003 396.0781,274.2601 394.5707,270.9608 393.6058,266.5994 393.6897,262.1315 394.5155,258.5955 396.005,255.1879 398.137,251.9936 401.656,248.425 405.102,246.0024 409.0514,244.0399 413.4424,242.5999 418.2059,241.7364 423.2665,241.4943 428.5437,241.909 432.5932,242.6662 438.0451,244.2833 442.1256,245.9548 447.4843,248.7921 451.3944,251.3691 456.3944,255.3854 459.9394,258.8153 463.272,262.5843 466.361,266.6721 469.1773,271.0555 471.6941,275.7087 473.887,280.6036 475.7345,285.7097 477.218,290.9948 478.322,296.425 479.0343,301.9652 479.3459,307.5791 479.2514,313.2299 478.7488,318.8804 477.0101,328.196 474.1719,337.2376 471.9629,342.4626 469.3934,347.4963 466.4827,352.3068 463.2528,356.8641 459.7287,361.1404 455.9376,365.1104 451.9092,368.7515 447.675,372.0439 443.2683,374.9709 438.7238,377.519 434.0772,379.6781 429.3653,381.4414 424.625,382.8055 418.3247,384.0044 413.6625,384.444 407.599,384.4334 403.2114,383.9936 397.6385,382.8619 393.7075,381.6294 388.8533,379.518 384.4987,376.9285 380.6982,373.9297 377.4972,370.5968 374.9314,367.0099 373.0262,363.2531 371.5944,358.4501 371.2116,354.6288 371.4962,350.9208 372.4272,347.411 374.4506,343.4267 377.3501,340.0288 380.23,337.8234 384.426,335.8068 388.1726,334.8475 393.2156,334.532 397.4369,335.0216 401.7311,336.1896 406.0107,338.0419 410.1881,340.5735 414.177,343.7681 417.8938,347.599 420.4546,350.8678 423.5066,355.7169 426.0808,361.0772 428.1148,366.8867 429.2529,371.4971 430.2166,377.922 430.5034,382.9054 430.4028,387.9911 429.9058,393.1428 429.0071,398.3239 427.7048,403.497 426.0005,408.6251 423.8992,413.6711 421.4094,418.5989 418.5431,423.3732 415.3155,427.9599 411.7447,432.3264 407.8521,436.4423 403.6616,440.279 399.1999,443.8104 394.4959,447.0131 386.2024,451.5652 381.0087,453.7981 375.6943,455.6415 370.2955,457.0862 364.8492,458.1269 359.3925,458.7613 353.9626,458.9909 348.5965,458.8207 343.3305,458.2589 338.1999,457.3173 333.2387,456.0109 328.4795,454.3577 323.953,452.3789 319.6876,450.0983 315.7096,447.5424 312.0424,444.7398 307.6718,440.6731 304.8053,437.4181 301.5577,432.8708 299.5652,429.3512 297.5101,424.5827 296.1453,419.8081 295.4635,415.1149 295.4462,410.589 296.0646,406.3132 297.2795,402.3661 299.5623,398.0049 301.9285,395.0539 304.7026,392.6426 307.8108,390.8187 312.0453,389.4215 316.5152,389.052 321.0512,389.7353 325.4825,391.4698 329.6403,394.227 333.3625,397.9523 335.9243,401.5771 338.4899,406.8297 339.9558,411.5349 340.8414,416.6129 341.1014,421.9883 340.7009,427.5805 339.6149,433.3052 337.8293,439.0756 335.3413,444.8037 332.1586,450.4019 328.3003,455.7842 323.7959,460.8676 320.017,464.4364 315.9171,467.7616 311.5194,470.8139 305.2374,474.4132 300.2492,476.7289 295.058,478.6925 289.6967,480.2863 282.3434,481.8118 276.7209,482.4924 271.0469,482.7681 265.3587,482.6356 259.6934,482.0954 254.0882,481.1512 248.5796,479.8103 241.4467,477.4244 232.9845,473.5309 225.1638,468.7091 218.1167,463.0694 214.3075,459.3464 210.8385,455.4063 205.8599,448.4468 203.3765,444.0919 201.2826,439.6465 199.5838,435.1473 198.2824,430.6316 196.8626,421.6985 196.9707,413.1388 197.5666,409.0861 198.8836,403.9917 200.2354,400.4418 202.4763,396.1225 204.4502,393.2257 207.4156,389.861 209.8481,387.7344 213.3045,385.4557 216.9273,383.8357 220.6299,382.8891 223.4065,382.6236 227.0381,382.857 230.5102,383.7468 233.739,385.2666 237.3125,387.9952 240.2386,391.557 242.3902,395.8376 243.6595,400.7041 243.961,406.0083 243.2336,411.5904 241.4418,417.283 239.2352,421.8016 236.3492,426.194 232.8026,430.3742 228.625,434.2596 223.856,437.7716 218.5448,440.8373 212.7493,443.3905 206.5355,445.3727 199.9758,446.7343 193.1488,447.4349 187.9028,447.508 180.809,446.9856 175.4623,446.1226 168.3689,444.3422 163.1236,442.539 157.9829,440.3425 152.9826,437.7636 146.5934,433.7548 142.0523,430.3435 137.7603,426.6088 133.7461,422.5745 130.0357,418.2674 126.6527,413.7162 123.6177,408.9521 120.1426,402.3254 117.3506,395.4604 114.8546,386.674 113.4809,377.8195 113.2231,369.0687 114.0479,360.5904 115.8962,352.546 118.6844,345.0858 122.3065,338.3448 126.6367,332.4399 132.5663,326.5909 139.0395,322.203 145.7683,319.3436 152.4574,318.025 155.6954,317.9321 159.822,318.3731 165.4411,320.1722 167.9253,321.5418 170.836,323.803 173.2324,326.5028 175.0627,329.5707 176.284,332.9302 176.8634,336.5001 176.7787,340.1955 176.0184,343.9296 174.5819,347.6147 172.4799,351.1638 169.7336,354.4917 167.27,356.7932 163.4793,359.5404 160.2836,361.3197 155.5982,363.2636 151.8006,364.3672 146.4154,365.3237 142.1764,365.6301 133.3314,365.1221 128.7965,364.2867 124.2355,363.0554"/>
    <polygon points="121.4394,363.7277 123.7004,356.0911 126.8434,349.1139 130.7512,342.9214 136.2583,336.673 142.4096,331.8442 148.9226,328.5224 155.5035,326.7404 158.727,326.4218 162.8744,326.574 168.6053,327.9767 171.179,329.1696 174.2403,331.2223 176.8193,333.7484 178.8591,336.6811 180.3117,339.9473 181.1388,343.468 181.3121,347.1604 180.8141,350.9384 179.6382,354.7147 177.7888,358.4018 175.2814,361.9132 172.9843,364.381 169.3944,367.3858 166.3307,369.3837 161.7923,371.6498 158.081,373.0156 152.7756,374.3453 148.5683,374.9467 139.7094,375.057 135.1272,374.5399 130.4914,373.6298 125.8389,372.3221 121.2067,370.6159 113.6323,366.895 109.2347,364.1478 104.9908,361.0281 98.3509,355.0431 94.6791,351.0117 91.2776,346.6777 86.2815,338.8521 82.9529,332.1268 80.8772,326.8608 79.1799,321.4418 77.8735,315.9049 76.9673,310.2863 76.467,304.6226 76.3749,298.9513 76.8846,291.4417 77.7343,285.8966 78.9747,280.4663 80.5931,275.1858 83.3113,268.4363 85.745,263.6336 88.4921,259.0863 91.5272,254.8215 95.9735,249.6167 100.81,245.0084 105.9588,241.038 111.3377,237.7366 116.8611,235.1251 122.4414,233.2131 127.9909,231.9996 133.4223,231.4722 139.9168,231.7418 144.7782,232.6583 150.3145,234.6046 154.2286,236.7343 158.3806,240.0059 161.621,243.8218 163.8768,248.0273 165.1004,252.458 165.2704,256.9444 164.6508,260.4586 163.3752,263.8126 161.4695,266.9228 158.9701,269.7093 155.923,272.0975 152.3832,274.0191 148.4139,275.4135 145.1972,276.0813 140.6493,276.4323 137.0881,276.2713 132.2064,275.4698 128.4922,274.4188 123.5396,272.4116 119.8729,270.4528 115.1177,267.2456 111.6982,264.4051 108.4436,261.2055 105.3873,257.663 102.5613,253.7964 99.9954,249.628 97.7176,245.1823 95.7531,240.4866 93.2353,232.1861 92.2091,226.9734 91.5649,221.6281 91.3691,212.5209 91.7896,206.9974 92.6169,201.4748 94.8949,192.3735 96.7914,187.0345 99.0731,181.8307 101.7262,176.7967 104.7337,171.9658 108.0755,167.3693 111.7289,163.0367 115.6682,158.9952 121.3168,154.1013 125.8108,150.8299 130.4895,147.9205 135.3187,145.3882 141.9304,142.6175 146.9714,141.0037 152.0419,139.792 157.1046,138.9824 163.7786,138.5222 168.6799,138.6316 175.0086,139.362 181.0281,140.7267 186.6634,142.6798 191.8455,145.1665 196.5134,148.1237 200.614,151.4812 204.1036,155.1628 206.9486,159.0874 209.5639,164.2057 210.8898,168.3643 211.5915,173.4986 211.4049,177.4494 210.279,182.0546 208.2305,186.1456 205.3557,189.581 201.7716,192.2364 198.4842,193.7281 194.9055,194.6099 191.1166,194.8486 186.214,194.2087 182.2647,192.9332 178.3863,190.98 174.6656,188.3619 171.187,185.1024 168.0316,181.2355 165.2754,176.8051 163.5126,173.1441 161.6192,167.8604 160.5728,163.6326 159.7154,157.7007 159.4979,153.0733 159.6604,148.3313 160.2132,143.5105 161.163,138.6474 162.5132,133.779 164.2635,128.9425 166.4102,124.1751 168.9463,119.5131 171.8612,114.9923 175.1409,110.6473 178.7686,106.5113 182.7241,102.6154 186.9844,98.9893 191.524,95.6598 196.3149,92.6516 204.775,88.4099 210.0831,86.3572 215.523,84.691 221.059,83.4217 226.6544,82.5563 232.2722,82.0982 237.875,82.0473 243.4258,82.4003 248.888,83.15 254.2258,84.2861 259.4045,85.795 264.3909,87.6596 269.1537,89.8601 273.6633,92.3738 277.8927,95.1751 281.8171,98.2363 285.4146,101.5271 288.6663,105.0158 292.437,109.9167 295.5363,115.026 297.9463,120.2577 299.2968,124.2091 300.4901,129.4439 301.0012,134.5605 300.8531,139.4741 300.0793,144.1035 298.7232,148.3724 296.8375,152.2107 293.8292,156.3076 290.986,158.9589 287.0112,161.4191 283.5941,162.6647 279.1659,163.2852 274.7224,162.8517 271.2714,161.7525 268.0057,160.0032 265.0083,157.6324 261.7578,153.8552 259.6427,150.2427 258.0295,146.1687 256.9747,141.7004 256.5264,136.9111 256.7227,131.88 257.5916,126.6903 258.6956,122.7457 260.777,117.4866 262.794,113.5908 266.082,108.5308 268.9857,104.8834 272.2505,101.4015 275.8605,98.1186 279.7966,95.0666 284.0368,92.2754 288.5563,89.7729 293.3279,87.5844 298.3221,85.7326 303.5073,84.2373 308.8503,83.1153 314.3164,82.3801 319.8697,82.042 325.4738,82.1079 331.0914,82.5811 336.6853,83.4616 345.8552,85.8227 351.206,87.7622 356.4004,90.0789 361.4047,92.7571 366.1867,95.7775 370.7165,99.1184 374.966,102.7551 378.9097,106.6604 382.5248,110.8047 385.7914,115.1568 388.6924,119.6835 391.2142,124.35 393.3464,129.1207 395.0819,133.959 396.4172,138.8278 397.3522,143.69 397.8904,148.5086 398.0387,153.247 397.6481,159.3784 396.6166,165.2226 394.9875,170.703 393.405,174.5319 390.8621,179.2105 387.886,183.3496 384.5503,186.9008 380.9336,189.8253 377.1189,192.0948 373.1922,193.6912 368.2595,194.7308 364.4005,194.8044 360.7122,194.2228 357.2774,193.0143 353.4598,190.682 350.3023,187.5276 348.3356,184.4904 346.9261,181.0704 346.1191,177.3423 346.0115,172.3715 346.6758,168.2489 348.0206,164.0905 350.0472,159.9841 352.7454,156.0169 356.0944,152.2741 360.0626,148.8378 363.4206,146.5084 368.3671,143.7912 373.7965,141.5788 379.6435,139.93 384.2597,139.0938 389.0375,138.6208 393.9428,138.5255 398.9403,138.8194 403.9935,139.5103 409.0655,140.6027 414.1192,142.0975 419.1173,143.9924 424.0231,146.2813 428.8007,148.9548 433.4149,152.0002 437.8321,155.4014 442.0204,159.1394 445.9496,163.1922 449.5919,167.535 454.9568,175.3427 459.3541,183.74 461.4945,188.998 463.2455,194.3781 464.5978,199.8441 465.5456,205.3593 466.0866,210.8865 466.2219,216.3883 465.9562,221.828 465.2975,227.1691 464.2575,232.3761 462.8508,237.415 461.0953,242.2531 459.0119,246.8595 456.6243,251.2055 453.0134,256.5502 450.0221,260.1908 445.7158,264.5168 441.119,268.2038 436.3146,271.2233 432.627,273.0387 427.6677,274.8534 422.7405,275.9775 417.9324,276.4232 413.328,276.2137 409.0086,275.3823 405.0503,273.9726 400.7166,271.4781 397.8165,268.9721 395.4778,266.088 393.7439,262.9019 392.4772,258.6184 392.2492,254.1556 392.8263,250.5706 394.0745,247.0673 395.9785,243.7322 399.24,239.9267 402.5086,237.2697 406.3114,235.0365 410.5913,233.2937 415.2829,232.1 420.3143,231.5055 425.6076,231.551 429.7001,232.024 435.2515,233.2568 439.4386,234.6396 444.9823,237.0961 449.0626,239.3941 454.3305,243.0519 458.1062,246.2261 461.6936,249.7535 465.0602,253.6158 468.1754,257.7921 471.0106,262.2584 473.5396,266.9884 475.7388,271.9532 477.5874,277.1219 479.0675,282.4619 480.1645,287.9389 480.867,293.5174 481.1669,299.161 481.0597,304.8328 479.975,314.247 477.7744,323.4645 475.9353,328.8309 473.7232,334.0316 471.1552,339.0334 468.2511,343.8049 465.0339,348.3166 461.5289,352.5414 457.7643,356.4546 453.7701,360.0344 449.5783,363.2616 445.2226,366.1206 440.738,368.5985 436.1605,370.6862 431.5269,372.3777 425.3256,374.0131 420.7054,374.7769 414.6559,375.1893 410.2484,375.0566 404.6101,374.3164 400.6027,373.3611 395.613,371.5935 391.0884,369.314 387.0879,366.5877 383.6623,363.4862 380.8526,360.087 378.6899,356.4723 376.9266,351.7808 376.2781,347.9956 376.3034,344.2767 376.9872,340.7105 378.7278,336.5948 381.3833,333.0029 384.1023,330.6019 388.1473,328.2976 391.818,327.0793 396.8267,326.4128 401.0718,326.6067 405.437,327.4723 409.8354,329.0216 414.1792,331.2556 418.3813,334.1642 422.3562,337.7265 425.1389,340.8086 428.5217,345.433 431.4635,350.6007 433.8978,356.2542 435.3547,360.774 436.7642,367.116 437.398,372.0673 437.6524,377.1476 437.516,382.3215 436.9809,387.5526 436.0426,392.804 434.7001,398.0384 432.9559,403.2188 430.816,408.3082 428.2897,413.2708 425.3899,418.0714 422.1324,422.6765 418.5364,427.0539 414.6237,431.1735 410.4192,435.0076 405.9501,438.5305 397.9944,443.6501 392.969,446.2399 387.7962,448.4494 382.5114,450.2673 377.1509,451.6853 371.7517,452.6988 366.3511,453.3067 360.9862,453.5112 355.6938,453.3181 350.51,452.7367 345.4698,451.7795 340.6069,450.4624 335.9534,448.8041 331.5393,446.8266 327.3926,444.5544 323.5389,442.0145 318.8952,438.2625 315.8087,435.2155 312.2518,430.9058 310.0186,427.5338 307.6359,422.9202 305.9414,418.2524 304.9338,413.6182 304.6008,409.1045 304.9195,404.796 305.8561,400.7737 307.8291,396.264 309.9837,393.1551 312.5828,390.5562 315.5563,388.5199 319.683,386.8307 324.1162,386.1503 328.6888,386.5155 333.2303,387.9367 337.5703,390.3971 341.5433,393.8538 344.3518,397.291 347.2775,402.3518 349.0681,406.9433 350.3057,411.9472 350.9401,417.2913 350.9306,422.8979 350.2465,428.6844 348.8679,434.5652 346.7855,440.4529 344.0011,446.2595 340.5276,451.8978 336.3887,457.2831 332.868,461.1068 329.0101,464.7099 324.836,468.0616 318.8204,472.0903 314.0058,474.7483 308.9643,477.0692 303.7273,479.0331 296.4982,481.0678 290.9369,482.139 285.296,482.8098 279.6124,483.0745 273.9232,482.9307 268.2658,482.3798 262.6771,481.4265 255.3951,479.5439 246.6819,476.2503 238.544,471.9857 231.1205,466.8514 227.0609,463.4031 223.3256,459.7146 217.8736,453.1193 215.0924,448.9483 212.6936,444.6598 210.6851,440.2901 209.0719,435.8761 207.0324,427.0638 206.5431,418.5174 206.8548,414.4331 207.8133,409.2591 208.9142,405.6236 210.8483,401.1586 212.6153,398.1311 215.3388,394.5677 217.617,392.2766 220.9061,389.7623 224.407,387.8937 228.0345,386.6911 230.7859,386.2325 234.425,386.212 237.9506,386.8575 241.2776,388.1483 245.0327,390.621 248.2002,393.97 250.6451,398.09 252.2508,402.8561 252.9216,408.1264 252.5854,413.7457 251.195,419.5494 249.309,424.2109 246.7364,428.7939 243.4901,433.2113 239.5937,437.3787 235.0812,441.2148 229.9968,444.6435 224.3936,447.5948 218.3331,450.0057 211.8844,451.8215 205.1229,452.9966 199.8948,453.4355 192.7819,453.4091 187.388,452.9212 180.1876,451.64 174.8293,450.2071 169.5479,448.3745 164.3799,446.1507 157.7266,442.5973 152.9586,439.5112 148.4166,436.0849 144.1308,432.3405 140.129,428.3027 136.4367,423.9986 133.0768,419.4578 129.1479,413.0897 125.8838,406.4361 122.7809,397.8453 120.7929,389.1081 119.9253,380.3966 120.1567,371.8814"/>
    <polygon points="434.3492,410.0787 431.0003,414.6626 424.7022,421.7467 417.6078,428.0246 413.0231,431.3573 408.2301,434.3392 403.262,436.9529 398.1531,439.1844 392.9392,441.023 387.6568,442.4613 382.343,443.4954 377.0349,444.1249 371.7697,444.3528 366.5841,444.1857 361.5138,443.6335 356.5937,442.7097 351.8571,441.4306 347.3356,439.8157 343.0589,437.8876 337.7845,434.8733 333.0515,431.413 328.9094,427.5799 326.2147,424.5074 323.1956,420.2131 320.8516,415.7713 319.1933,411.2692 318.2203,406.7945 317.9214,402.4343 318.2743,398.2734 319.5812,393.4763 321.2661,390.0542 323.4612,387.0768 326.1041,384.6056 329.931,382.3088 334.1994,380.9693 337.8246,380.6277 341.5441,380.9556 345.2706,381.9606 349.8052,384.1626 353.2291,386.6616 356.3814,389.7865 359.1832,393.4991 361.5608,397.7518 363.447,402.4879 364.7826,407.6427 365.3918,411.7407 365.6467,417.4524 365.2337,423.3726 364.1294,429.4164 362.8392,433.9781 361.1513,438.5234 359.0677,443.015 356.5942,447.4162 353.7398,451.6909 350.5168,455.804 346.9409,459.7219 343.031,463.4122 338.8086,466.8448 334.2982,469.9915 329.5269,472.8266 324.5238,475.3272 319.3204,477.473 313.9497,479.2469 308.4462,480.6349 302.8456,481.6262 297.1845,482.2136 287.7158,482.2861 282.0751,481.7872 276.5098,480.8873 271.0563,479.5955 265.7497,477.924 260.6238,475.8882 255.711,473.5069 251.0415,470.8016 246.6437,467.7967 242.5433,464.5188 238.7635,460.9973 235.3245,457.2632 232.2436,453.3496 229.5351,449.2909 227.2096,445.1226 225.2746,440.8811 223.3083,435.176 222.2937,430.9079 221.5465,425.3015 221.4295,421.207 221.8419,415.9612 222.8686,411.0321 224.4622,406.4936 226.5666,402.4131 229.1175,398.8505 232.0438,395.857 236.1114,392.9782 239.5934,391.4031 243.1852,390.4958 246.7996,390.264 251.216,390.9184 255.3626,392.5918 258.3769,394.6271 261.6384,397.9757 263.7558,401.2361 265.6836,405.9391 266.5847,410.1196 266.8678,414.5898 266.4986,419.2689 265.4536,424.0723 263.7199,428.9133 261.2956,433.7039 259.0293,437.2112 255.4253,441.7045 251.1819,445.9123 246.3376,449.7553 242.3385,452.3537 238.0517,454.6765 233.5033,456.6973 228.7219,458.3922 223.7381,459.7403 218.5845,460.7232 213.295,461.3261 207.9051,461.5373 202.4511,461.3484 196.9698,460.7544 191.4985,459.754 186.0744,458.3492 180.7343,456.5456 175.5144,454.3522 170.45,451.7814 165.5747,448.8487 160.9209,445.5728 153.7383,439.4104 149.8175,435.3325 146.2182,431.0038 142.9616,426.4546 140.0661,421.7176 137.5468,416.8268 135.4156,411.8174 133.681,406.7258 132.3481,401.5888 131.4185,396.4435 130.8902,391.3273 130.758,386.2769 131.0129,381.3285 131.6428,376.5171 132.6322,371.8767 133.9627,367.4394 136.2298,361.8911 138.2678,358.042 141.3833,353.3733 143.9794,350.2475 147.7255,346.6155 151.7227,343.6268 155.8864,341.3057 160.13,339.6655 164.3657,338.7086 168.5063,338.4264 173.4181,338.9915 177.0367,340.1398 180.2958,341.8612 183.1247,344.1038 185.9598,347.5474 187.9182,351.5763 188.9161,356.0413 188.8944,360.7821 188.1197,364.6607 186.1968,369.4727 183.9042,373.187 180.1284,377.5205 176.4185,380.6403 172.1418,383.3683 167.3508,385.6341 162.1062,387.3742 156.4763,388.5334 150.536,389.0652 144.3651,388.9331 138.0477,388.1107 133.2656,387.0312 126.9011,384.97 122.1847,382.9597 117.5579,380.5573 113.057,377.7719 107.3121,373.484 103.239,369.8586 99.4031,365.9038 95.834,361.6423 91.5371,355.5273 88.6925,350.6528 86.1958,345.5651 84.0652,340.2967 82.3158,334.8817 80.9593,329.3554 80.0043,323.7542 79.4557,318.115 79.4473,308.733 79.9806,303.1742 80.9088,297.713 83.302,288.9238 85.2203,283.8931 87.477,279.0835 91.9281,271.6386 94.9702,267.5577 98.2559,263.7952 101.754,260.3712 105.4315,257.3032 109.254,254.6053 113.186,252.2881 117.191,250.3593 122.5809,248.3977 126.6126,247.3841 131.9036,246.6346 135.7618,246.5135 140.6924,246.9167 144.1868,247.6221 148.5146,249.0629 151.4742,250.4891 154.9883,252.8022 157.9581,255.5232 160.3369,258.5776 162.088,261.886 163.1846,265.3648 163.6109,268.9278 163.362,272.4875 162.1116,276.7995 159.8525,280.8026 156.6463,284.3374 152.579,287.2561 147.7589,289.426 143.4458,290.5455 137.6031,291.0947 132.6644,290.8078 126.2976,289.4983 121.1551,287.6726 116.0641,285.1526 111.112,281.9474 106.3845,278.0772 101.9641,273.5726 97.9287,268.4745 94.3507,262.8331 91.2956,256.7072 89.3824,251.8348 87.817,246.758 86.6176,241.5093 85.613,234.3026 85.32,228.7874 85.4302,223.2183 85.9472,217.6324 87.2694,210.2226 88.7308,204.742 90.5864,199.3676 92.8249,194.1351 95.432,189.0787 98.3899,184.2313 101.678,179.6239 106.5347,173.9037 113.2755,167.5192 117.6244,164.1368 122.1625,161.1135 130.053,156.9125 134.9256,154.9122 139.8572,153.3105 148.1067,151.5325 153.0141,150.9976 157.8448,150.8543 162.5631,151.0927 167.1342,151.6996 175.7033,153.9497 179.6401,155.5511 184.4662,158.1248 187.7369,160.3479 191.5923,163.6446 194.0817,166.3243 196.838,170.1084 198.4698,173.0586 200.0533,177.0723 200.9557,181.0972 201.1831,185.0459 200.7523,188.8322 199.6909,192.3729 198.0367,195.589 195.837,198.4067 193.1483,200.7588 190.0349,202.586 186.5679,203.8371 183.782,204.3719 177.882,204.3466 173.8211,203.4908 170.7703,202.4019 164.816,199.0808 159.3002,194.282 154.4997,188.1085 150.6678,180.7134 148.3742,173.7595 147.0125,166.2291 146.6661,158.2724 147.3941,150.0506 149.2296,141.7324 152.179,133.4895 156.2216,125.4928 161.3106,117.9078 166.0874,112.2416 171.4401,107.0131 175.7988,103.42 180.4226,100.137 185.2824,97.1872 190.3468,94.5909 195.5828,92.3652 200.9558,90.5242 208.2711,88.686 213.8236,87.7785 219.3914,87.278 224.9372,87.184 232.2336,87.6828 237.5853,88.5142 244.4933,90.2094 249.46,91.9001 255.7364,94.676 261.5542,97.998 266.8514,101.8034 271.5742,106.0226 275.6781,110.5795 279.1285,115.3933 281.901,120.3795 283.9822,125.4511 285.3696,130.5203 286.0719,135.4996 286.017,141.4673 284.9838,147.001 283.0579,151.9524 280.3468,156.1885 276.9778,159.5947 273.0943,162.0779 268.8525,163.5687 265.3121,164.0163 261.735,163.7897 258.209,162.8894 255.6503,161.7788 252.4214,159.7344 249.4766,157.0743 246.8935,153.839 245.2372,151.0648 243.4566,146.9484 242.4746,143.5834 241.6781,138.783 241.4894,134.9892 241.8111,129.7371 242.4967,125.6987 245.039,117.5245 249.1498,109.4673 251.783,105.5748 254.7889,101.8208 258.154,98.24 261.8617,94.8656 268.7472,89.7852 273.2639,87.1099 278.0372,84.7462 286.4822,81.5603 295.4101,79.3912 304.6613,78.3032 312.1824,78.2383 317.8357,78.6653 323.4584,79.4994 329.0133,80.7363 334.464,82.3681 339.7751,84.3836 344.9121,86.7683 351.4342,90.4915 356.0405,93.664 360.3708,97.1356 364.3994,100.8794 369.2617,106.2438 372.5009,110.5057 375.3726,114.9351 377.8636,119.497 380.5768,125.7235 382.583,132.0347 383.88,138.3424 384.4762,144.559 384.3912,150.5987 383.655,156.3788 382.3079,161.8211 380.3995,166.853 377.9881,171.4088 375.1399,175.4308 371.0767,179.6335 367.5202,182.2892 362.829,184.682 358.0226,186.0194 353.2722,186.2997 348.7471,185.5478 344.6102,183.8151 341.0147,181.1778 338.6222,178.4826 336.729,175.3322 335.3905,171.7943 334.5672,166.9412 334.6314,162.8119 335.3645,158.5543 336.7796,154.2552 338.8784,150.0024 341.6518,145.8832 345.0798,141.9831 348.0624,139.2515 352.5563,135.9303 356.2883,133.7205 361.7017,131.2034 366.0554,129.6712 370.6286,128.4697 375.39,127.6187 380.3064,127.1356 385.3435,127.034 390.4656,127.3246 395.6361,128.0145 400.8179,129.1075 405.974,130.6038 411.0672,132.5001 416.0608,134.7897 420.919,137.4624 425.6071,140.5048 430.0917,143.9002 434.3413,147.6287 440.8221,154.5209 444.3062,159.0204 447.4583,163.7577 450.258,168.7016 452.6883,173.8189 454.7349,179.0752 456.3873,184.4348 457.6379,189.8611 458.483,195.3171 458.9222,200.7655 458.9585,206.1692 458.5984,211.4916 457.8521,216.6968 456.7328,221.75 455.257,226.6178 453.4442,231.2687 450.5422,237.0814 448.0352,241.1145 444.3055,246.0111 440.2009,250.3136 435.7998,253.9822 432.3542,256.2996 427.6355,258.7945 422.8546,260.6001 418.0994,261.7169 413.4568,262.1561 409.0119,261.94 404.846,261.1011 400.1473,259.2427 396.8804,257.1726 393.5129,253.9581 391.4555,250.9707 389.7479,246.843 389.0548,242.4285 389.2539,238.8028 390.1291,235.1883 391.6741,231.6724 394.5199,227.5468 397.4929,224.5627 401.0414,221.9442 405.1157,219.7636 409.6569,218.086 414.5985,216.9689 419.8676,216.4609 423.9871,216.5034 429.637,217.1492 433.9457,218.0868 439.7157,219.9504 444.0139,221.8093 449.6353,224.8963 453.7221,227.6585 457.6585,230.7916 461.4105,234.2808 464.9451,238.1086 468.2317,242.2541 471.2412,246.6938 473.9474,251.4016 476.3261,256.3488 478.3563,261.5048 480.0198,266.8371 481.3015,272.3116 482.1897,277.893 482.676,283.5449 482.5813,293.0209 481.3562,302.4179 480.0881,307.9471 478.4318,313.3506 476.4006,318.5934 474.0112,323.6423 471.2832,328.4656 468.2391,333.0336 464.9041,337.3189 461.306,341.2966 457.4745,344.9444 453.4414,348.2429 449.2404,351.1761 444.9063,353.7308 440.4749,355.8973 434.4785,358.172 429.9634,359.4146 423.9902,360.457 419.5929,360.7858 413.9081,360.639 409.8228,360.1078 404.6757,358.8714 399.9376,357.0774 395.6741,354.7842 391.943,352.0577 388.7934,348.9709 386.2647,345.602 384.0207,341.1206 382.9801,337.4239 382.6165,333.7227 382.9238,330.1046 384.2247,325.8295 386.4901,321.9797 388.9432,319.3077 391.9102,317.075 395.3304,315.3451 400.1389,313.9731 404.3206,313.5628 408.7129,313.8012 413.2311,314.7117 417.7886,316.3074 422.2975,318.5901 426.6704,321.5506 429.8094,324.2042 433.7405,328.2963 437.3089,332.9859 440.4407,338.2251 442.4624,342.4813 444.6731,348.5408 445.9383,353.3354 446.8454,358.3089 447.3783,363.428 447.5243,368.6575 447.2737,373.9615 446.6206,379.3032 445.5625,384.6456 444.1002,389.9513 442.2382,395.1834 439.9843,400.3055 437.3498,405.282"/>
    <polygon points="500.845,500.845 500.845,56.6929 56.6929,56.6929 56.6929,500.845"/>
    <polyline points="501.1504,509.9502 502.6772,508.7287 502.6772,515.1412"/>
    <polygon points="494.1272,513.0037 495.0433,511.7823 497.7915,510.8662 498.0968,510.2555 497.7915,509.0341 495.654,508.7287 494.7379,509.0341 494.4326,509.6448 494.7379,510.8662 497.4861,511.7823 498.4022,513.0037 498.0968,514.5305 496.8754,515.1412 494.7379,514.8358 494.1272,513.9198"/>
    <polyline points="490.463,515.1412 490.463,508.7287 488.9362,509.9502"/>
    <polygon points="453.9949,174.7535 456.245,179.9525 458.107,185.2771 459.5713,190.691 460.6318,196.1577 461.286,201.6399 461.5347,207.1003 461.3824,212.502 460.8368,217.8086 459.9093,222.9845 458.6143,227.9956 456.9695,232.809 454.9955,237.3937 451.8925,243.1016 449.2462,247.0447 445.3479,251.8082 441.0956,255.9648 436.5692,259.4776 433.0448,261.6734 428.2419,264.002 423.4009,265.6397 418.6096,266.5898 413.9545,266.8668 409.5198,266.4956 405.3858,265.5119 400.7548,263.4906 397.5621,261.3078 394.3089,257.9777 392.357,254.9203 390.7945,250.7356 390.2558,246.2996 390.5814,242.683 391.5822,239.1013 393.2489,235.6414 396.237,231.6177 399.3123,228.7391 402.9501,226.2461 407.098,224.209 411.6949,222.6909 416.6726,221.7469 421.9562,221.4231 426.0716,221.6094 431.6956,222.452 435.969,223.5393 441.6704,225.6032 445.9011,227.6109 451.4114,230.8923 455.3992,233.7955 459.2239,237.064 462.8518,240.682 466.2507,244.6308 469.3906,248.8885 472.2434,253.4305 474.7836,258.2299 476.9882,263.2571 478.8372,268.4808 480.3136,273.8679 481.4035,279.3838 482.0964,284.9928 482.3851,290.6582 481.9597,300.1252 480.4075,309.4737 478.9472,314.9553 477.1033,320.2976 474.8904,325.4664 472.3262,330.4288 469.4315,335.154 466.2299,339.613 462.7474,343.7793 459.0126,347.6289 455.0561,351.1408 450.9104,354.2966 446.6096,357.0813 442.1889,359.4832 437.6846,361.4938 431.6125,363.5578 427.0568,364.6421 421.0509,365.4754 416.6448,365.6506 410.9686,365.3054 406.9043,364.632 401.8035,363.2167 397.1309,361.2585 392.95,358.8178 389.3163,355.9628 386.2764,352.7679 383.8668,349.3129 381.7805,344.7558 380.8696,341.025 380.6354,337.3135 381.0688,333.7083 382.518,329.4812 384.9165,325.7128 387.4614,323.128 390.5044,321.0002 393.9829,319.3907 398.8363,318.1874 403.0298,317.9233 407.4111,318.3148 411.8948,319.3825 416.3938,321.1363 420.8203,323.5749 425.0873,326.6863 428.1317,329.4478 431.9176,333.6746 435.3202,338.4859 438.2672,343.8312 440.1391,348.1553 442.137,354.2882 443.2342,359.1241 443.9671,364.1263 444.3211,369.2608 444.2844,374.4922 443.8489,379.7842 443.0098,385.0999 441.7658,390.4021 440.1193,395.6536 438.0758,400.8175 435.6445,405.8578 432.8379,410.7394 429.6718,415.4284 426.165,419.8927 419.6234,426.7526 412.3143,432.7791 407.616,435.9498 402.7219,438.7625 397.6656,441.2013 392.482,443.2532 387.2071,444.9087 381.8777,446.1617 376.531,447.0097 371.2042,447.4536 365.9343,447.4976 360.7576,447.1496 355.7097,446.4209 350.8249,445.3259 346.1358,443.8822 341.6734,442.1106 337.4666,440.0344 332.3006,436.8378 327.6913,433.2145 323.6854,429.2391 321.0996,426.0744 318.2322,421.6774 316.0446,417.1565 314.5445,412.5992 313.7283,408.0933 313.5817,403.7254 314.0796,399.5794 315.5531,394.8307 317.3564,391.4696 319.654,388.5705 322.3816,386.1931 326.2864,384.0313 330.5989,382.8415 334.2338,382.6266 337.9396,383.0841 341.6287,384.2186 346.0838,386.5776 349.4183,389.1945 352.4597,392.4275 355.1302,396.2357 357.3579,400.5687 359.0777,405.3677 360.2325,410.566 360.6984,414.6828 360.7538,420.3999 360.1345,426.3021 358.8198,432.3037 357.3713,436.8176 355.5257,441.3012 353.2867,445.7173 350.6611,450.0295 347.6592,454.202 344.2947,458.2002 340.5842,461.9908 336.5479,465.5424 332.2083,468.8255 327.5908,471.8129 322.7234,474.4798 317.6362,476.8043 312.361,478.7672 306.9317,480.3526 301.3831,481.5476 295.7513,482.3429 290.0732,482.7323 280.6077,482.4744 274.9878,481.7789 269.4574,480.6853 264.0523,479.204 258.8072,477.3483 253.7555,475.1349 248.9288,472.5836 244.3566,469.717 240.0663,466.5603 236.0828,463.1414 232.4281,459.4901 229.1216,455.6383 226.1792,451.6196 223.6139,447.4688 221.4353,443.2218 219.6495,438.9154 217.8835,433.1452 217.0185,428.8442 216.4674,423.2152 216.4935,419.1191 217.0886,413.8909 218.2867,409.0006 220.0378,404.5205 222.2833,400.5159 224.957,397.0445 227.9859,394.1549 232.1516,391.4199 235.6864,389.9673 239.3077,389.1858 242.928,389.0804 247.3189,389.8885 251.4045,391.7056 254.3459,393.8448 257.4886,397.3052 259.4909,400.6375 261.2534,405.405 262.0081,409.6143 262.1349,414.0917 261.6027,418.755 260.3907,423.5191 258.4891,428.2966 255.8991,432.9997 253.5118,436.4258 249.7531,440.7905 245.3655,444.8477 240.3901,448.5193 236.3027,450.9766 231.9374,453.1483 227.3213,455.0092 222.4836,456.5362 217.4558,457.7095 212.271,458.512 206.9638,458.9299 201.5698,458.9529 196.1256,458.5737 190.6684,457.7888 185.2354,456.598 179.8636,455.0048 174.5897,453.016 169.4496,450.6418 164.4779,447.8957 159.708,444.7946 155.1713,441.3583 148.2081,434.949 144.432,430.7368 140.986,426.2851 137.8902,421.6251 135.1618,416.7899 132.8147,411.8141 130.8596,406.7334 129.3038,401.5843 128.1509,396.4039 127.4014,391.2294 127.0521,386.0979 127.0961,381.0459 127.5236,376.1094 128.321,371.3229 129.4718,366.7198 130.9564,362.3317 133.4157,356.8659 135.5868,353.0903 138.8633,348.5332 141.5669,345.4999 145.4375,342.0008 149.5365,339.1535 153.7788,336.9791 158.077,335.488 162.3436,334.6795 166.4914,334.5419 171.3805,335.2782 174.9569,336.552 178.1539,338.3861 180.9028,340.7261 183.616,344.2665 185.4326,348.3613 186.2741,352.8584 186.087,357.5956 185.1774,361.4447 183.0877,366.1867 180.6669,369.8187 176.7421,374.0179 172.9256,377.0063 168.5563,379.5834 163.6891,381.6806 158.387,383.2366 152.7201,384.1986 146.7648,384.5227 140.6023,384.1753 134.3175,383.133 129.5759,381.8872 123.2872,379.6052 118.6438,377.4315 114.1038,374.8692 109.7028,371.9283 104.111,367.4426 100.1669,363.6772 96.4714,359.591 93.0532,355.2075 88.9723,348.9463 86.2996,343.9755 83.982,338.8037 82.0365,333.4641 80.4771,327.9914 79.3144,322.4211 78.5554,316.79 78.204,311.1351 78.523,301.7585 79.2499,296.2217 80.3682,290.7963 83.0667,282.0959 85.1594,277.1352 87.5826,272.4073 92.2907,265.1223 95.4735,261.1501 98.8885,257.5045 102.5039,254.2047 106.2862,251.2669 110.2005,248.704 114.211,246.5255 118.2809,244.7376 123.736,242.9653 127.8006,242.093 133.1146,241.5287 136.9746,241.5422 141.8881,242.1173 145.3558,242.9442 149.6307,244.5352 152.5387,246.0638 155.9699,248.4982 158.8429,251.3211 161.1137,254.4567 162.7482,257.8241 163.7228,261.3391 164.0245,264.9148 163.6515,268.4637 162.2514,272.7294 159.854,276.6512 156.5264,280.072 152.3597,282.8469 147.4667,284.8473 143.1173,285.8156 137.259,286.1606 132.3332,285.7015 126.016,284.1706 120.9404,282.1665 115.9404,279.4704 111.1032,276.0943 106.5137,272.0615 102.2531,267.4054 98.3982,262.1696 95.0192,256.4067 92.1798,250.1779 90.4378,245.2417 89.0505,240.1134 88.035,234.826 87.2825,227.5887 87.1822,222.0666 87.4867,216.5047 88.1983,210.9402 89.7783,203.5811 91.43,198.1548 93.4721,192.8485 95.8919,187.6973 98.6738,182.735 101.7991,177.9937 105.246,173.5039 110.2993,167.9567 117.2588,161.8113 121.7232,158.5827 126.364,155.7197 134.3963,151.7967 139.3358,149.9676 144.3203,148.539 152.6268,147.05 157.5499,146.6867 162.3826,146.712 167.0897,147.115 171.6369,147.881 180.1222,150.4288 184.0008,152.1666 188.7341,154.9072 191.9252,157.2431 195.6632,160.6723 198.0575,163.4373 200.6801,167.3153 202.208,170.3206 203.6504,174.3871 204.4118,178.4411 204.5013,182.3952 203.9386,186.1642 202.7543,189.6657 200.9888,192.8221 198.6922,195.5613 195.923,197.8183 192.7477,199.5356 189.2392,200.6649 186.4363,201.1023 180.5408,200.871 176.5122,199.8741 173.5013,198.6793 167.6665,195.1524 162.3215,190.164 157.7395,183.8268 154.168,176.3025 152.1184,169.2727 151.0203,161.6994 150.9519,153.7355 151.9664,145.5441 154.091,137.295 157.3262,129.1601 161.6455,121.3094 166.9961,113.9065 171.9678,108.4105 177.4997,103.372 181.9811,99.9332 186.7167,96.8136 191.6765,94.0352 196.8284,91.6172 202.1389,89.5756 207.5728,87.9233 214.9478,86.3415 220.5286,85.6282 226.1105,85.3225 231.6562,85.422 238.9308,86.1751 244.2502,87.1928 251.0948,89.1281 255.9995,90.9911 262.1752,93.9843 267.8735,97.5073 273.0347,101.4953 277.6074,105.8767 281.5498,110.5741 284.83,115.5054 287.4268,120.5853 289.3297,125.7264 290.5394,130.8409 291.0675,135.8417 290.8043,141.8038 289.5786,147.2981 287.4811,152.1793 284.6239,156.3182 281.138,159.6048 277.1702,161.9509 272.879,163.2928 269.3251,163.6166 265.7581,163.2652 262.2656,162.2425 259.7473,161.0433 256.5917,158.8874 253.7415,156.1261 251.2729,152.8027 249.7145,149.9724 248.0786,145.7963 247.2146,142.3991 246.5861,137.5739 246.5299,133.7757 247.0347,128.5381 247.8609,124.526 250.6869,116.4455 255.0764,108.5368 257.8438,104.7385 260.9789,101.0917 264.4669,97.6305 268.2901,94.3876 275.3488,89.5506 279.9561,87.0346 284.8089,84.8389 293.36,81.9497 302.3581,80.0934 311.6416,79.329 319.1605,79.5265 324.7954,80.1506 330.3855,81.1804 335.8939,82.6104 341.2844,84.4314 346.5219,86.6311 351.5725,89.1937 357.9607,93.1421 362.4535,96.4735 366.66,100.0941 370.5555,103.9763 375.2276,109.5071 378.3161,113.8794 381.0314,118.4063 383.3618,123.0524 385.856,129.3698 387.6408,135.7471 388.7168,142.0963 389.0957,148.3299 388.7999,154.3629 387.8625,160.1138 386.3262,165.5058 384.2434,170.468 381.6745,174.9369 378.6876,178.857 374.4803,182.9153 370.8332,185.4453 366.0613,187.673 361.2113,188.8418 356.454,188.9562 351.9578,188.0468 347.8839,186.1708 344.3826,183.4096 342.0856,180.6326 340.3036,177.4179 339.0894,173.8356 338.4359,168.9567 338.6442,164.8321 339.5255,160.6026 341.0897,156.3556 343.3356,152.1786 346.2511,148.1587 349.8132,144.3807 352.8893,141.7548 357.4963,138.5925 361.3032,136.5142 366.8011,134.1876 371.2057,132.8083 375.818,131.7671 380.6062,131.0828 385.5365,130.7715 390.5741,130.8458 395.6829,131.315 400.8261,132.1849 405.9667,133.4581 411.0674,135.1335 416.0913,137.2064 421.0019,139.6688 425.7639,142.5095 430.343,145.7136 434.7064,149.2634 438.8232,153.138 445.0595,160.2522 448.3845,164.8705 451.3693,169.715"/>
  </g>
</svg>
